<svg width="1108" height="20" viewBox="0 0 1108 20" fill="none" xmlns="http://www.w3.org/2000/svg">
<path d="M0.806641 14V13.7607C0.806641 13.7106 0.818034 13.6582 0.84082 13.6035C0.868164 13.5488 0.902344 13.5033 0.943359 13.4668L4.32715 10.042C4.60514 9.75944 4.86263 9.486 5.09961 9.22168C5.34115 8.9528 5.5485 8.68392 5.72168 8.41504C5.89941 8.1416 6.03613 7.86361 6.13184 7.58105C6.2321 7.2985 6.28223 6.99544 6.28223 6.67188C6.28223 6.30729 6.2207 5.99056 6.09766 5.72168C5.97461 5.4528 5.81283 5.23177 5.6123 5.05859C5.41178 4.88542 5.17708 4.75781 4.9082 4.67578C4.64388 4.59375 4.37044 4.55273 4.08789 4.55273C3.77344 4.55273 3.48405 4.60059 3.21973 4.69629C2.95996 4.79199 2.72754 4.92415 2.52246 5.09277C2.32194 5.26139 2.15332 5.46419 2.0166 5.70117C1.88444 5.93815 1.79329 6.19564 1.74316 6.47363C1.71126 6.57845 1.66797 6.64681 1.61328 6.67871C1.55859 6.71061 1.48568 6.72201 1.39453 6.71289L1.05273 6.6582C1.11198 6.23438 1.22819 5.85612 1.40137 5.52344C1.57454 5.19076 1.79329 4.91048 2.05762 4.68262C2.32194 4.45475 2.62956 4.28158 2.98047 4.16309C3.33138 4.0446 3.70964 3.98535 4.11523 3.98535C4.49349 3.98535 4.85352 4.04004 5.19531 4.14941C5.54167 4.25879 5.84473 4.42513 6.10449 4.64844C6.36882 4.86719 6.57845 5.1429 6.7334 5.47559C6.88835 5.80827 6.96582 6.2002 6.96582 6.65137C6.96582 7.02507 6.90885 7.37142 6.79492 7.69043C6.68099 8.00944 6.52604 8.31706 6.33008 8.61328C6.13411 8.90495 5.90625 9.18978 5.64648 9.46777C5.38672 9.74577 5.11556 10.0283 4.83301 10.3154L1.72949 13.4805C1.87988 13.444 2.03483 13.4167 2.19434 13.3984C2.35384 13.3802 2.51562 13.3711 2.67969 13.3711H6.95898C7.0319 13.3711 7.08887 13.3939 7.12988 13.4395C7.17546 13.4805 7.19824 13.5374 7.19824 13.6104V14H0.806641ZM8.63379 9.04395C8.63379 8.17806 8.72493 7.42839 8.90723 6.79492C9.09408 6.1569 9.34701 5.63053 9.66602 5.21582C9.98958 4.80111 10.3656 4.49349 10.7939 4.29297C11.2223 4.08789 11.6826 3.98535 12.1748 3.98535C12.667 3.98535 13.1273 4.08789 13.5557 4.29297C13.9886 4.49349 14.3646 4.80111 14.6836 5.21582C15.0072 5.63053 15.2624 6.1569 15.4492 6.79492C15.6361 7.42839 15.7295 8.17806 15.7295 9.04395C15.7295 9.90983 15.6361 10.6618 15.4492 11.2998C15.2624 11.9333 15.0072 12.4574 14.6836 12.8721C14.3646 13.2868 13.9886 13.5967 13.5557 13.8018C13.1227 14.0023 12.6624 14.1025 12.1748 14.1025C11.6826 14.1025 11.2223 14.0023 10.7939 13.8018C10.3656 13.5967 9.98958 13.2868 9.66602 12.8721C9.34701 12.4574 9.09408 11.9333 8.90723 11.2998C8.72493 10.6618 8.63379 9.90983 8.63379 9.04395ZM9.31738 9.04395C9.31738 9.85059 9.39486 10.5387 9.5498 11.1084C9.70475 11.6735 9.91211 12.1383 10.1719 12.5029C10.4316 12.863 10.7347 13.125 11.0811 13.2891C11.4274 13.4531 11.792 13.5352 12.1748 13.5352C12.5576 13.5352 12.9222 13.4531 13.2686 13.2891C13.6149 13.125 13.918 12.863 14.1777 12.5029C14.4375 12.1383 14.6449 11.6735 14.7998 11.1084C14.9548 10.5387 15.0322 9.85059 15.0322 9.04395C15.0322 8.24186 14.9548 7.55599 14.7998 6.98633C14.6449 6.41667 14.4375 5.95182 14.1777 5.5918C13.918 5.22721 13.6149 4.96289 13.2686 4.79883C12.9222 4.63021 12.5576 4.5459 12.1748 4.5459C11.792 4.5459 11.4274 4.63021 11.0811 4.79883C10.7347 4.96289 10.4316 5.22721 10.1719 5.5918C9.91211 5.95182 9.70475 6.41667 9.5498 6.98633C9.39486 7.55599 9.31738 8.24186 9.31738 9.04395ZM17.6709 6.58301L20.5352 4.05371H21.0615V13.4805H23.2217V14H18.1084V13.4805H20.3848V5.44824C20.3848 5.28874 20.3916 5.12012 20.4053 4.94238L18.2246 6.88379C18.1608 6.93848 18.0947 6.95898 18.0264 6.94531C17.9626 6.93164 17.9124 6.9043 17.876 6.86328L17.6709 6.58301ZM25.2793 6.95898C25.2793 6.53516 25.359 6.14323 25.5186 5.7832C25.6781 5.41862 25.8968 5.10417 26.1748 4.83984C26.4574 4.57096 26.79 4.36133 27.1729 4.21094C27.5602 4.06055 27.9818 3.98535 28.4375 3.98535C28.875 3.98535 29.276 4.06055 29.6406 4.21094C30.0098 4.35677 30.3265 4.56641 30.5908 4.83984C30.8551 5.11328 31.0602 5.44141 31.2061 5.82422C31.3519 6.20247 31.4248 6.62402 31.4248 7.08887C31.4248 7.34408 31.3975 7.59017 31.3428 7.82715C31.2926 8.05957 31.2152 8.29199 31.1104 8.52441C31.0055 8.75684 30.8779 8.99609 30.7275 9.24219C30.5771 9.48828 30.4062 9.75033 30.2148 10.0283L27.6172 13.8359C27.5488 13.9453 27.4349 14 27.2754 14H26.667L29.5996 9.91211C29.7454 9.70703 29.8776 9.5179 29.9961 9.34473C30.1191 9.16699 30.2285 8.99382 30.3242 8.8252C30.0508 9.13509 29.7204 9.37435 29.333 9.54297C28.9456 9.70703 28.5332 9.78906 28.0957 9.78906C27.6901 9.78906 27.3141 9.72298 26.9678 9.59082C26.626 9.4541 26.3298 9.2627 26.0791 9.0166C25.8285 8.77051 25.6325 8.47428 25.4912 8.12793C25.3499 7.77702 25.2793 7.38737 25.2793 6.95898ZM25.9492 6.91797C25.9492 7.28255 26.0039 7.61068 26.1133 7.90234C26.2272 8.19401 26.3844 8.44238 26.585 8.64746C26.79 8.84798 27.0361 9.00293 27.3232 9.1123C27.6104 9.21712 27.9271 9.26953 28.2734 9.26953C28.6699 9.26953 29.0254 9.20117 29.3398 9.06445C29.6543 8.92773 29.9163 8.75 30.126 8.53125C30.3402 8.3125 30.502 8.06641 30.6113 7.79297C30.7253 7.51953 30.7822 7.24382 30.7822 6.96582C30.7822 6.60579 30.723 6.27767 30.6045 5.98145C30.4906 5.68066 30.3288 5.42546 30.1191 5.21582C29.9095 5.00163 29.6611 4.83529 29.374 4.7168C29.0869 4.59831 28.7725 4.53906 28.4307 4.53906C28.0615 4.53906 27.7243 4.59831 27.4189 4.7168C27.1182 4.83073 26.8584 4.99251 26.6396 5.20215C26.4255 5.41178 26.2568 5.66243 26.1338 5.9541C26.0107 6.24577 25.9492 6.56706 25.9492 6.91797ZM37.0576 9.59082C37.0576 9.04395 37.0895 8.51302 37.1533 7.99805C37.2217 7.48307 37.3311 6.97038 37.4814 6.45996C37.6364 5.94954 37.8346 5.43685 38.0762 4.92188C38.3223 4.40234 38.6253 3.86686 38.9854 3.31543L39.2793 3.5C39.3158 3.52279 39.3454 3.55924 39.3682 3.60938C39.391 3.65951 39.3773 3.72331 39.3271 3.80078C38.7666 4.69401 38.3451 5.62142 38.0625 6.58301C37.7845 7.54004 37.6455 8.54264 37.6455 9.59082C37.6455 10.6344 37.7868 11.637 38.0693 12.5986C38.3519 13.5557 38.7712 14.4808 39.3271 15.374C39.3727 15.4515 39.3841 15.5153 39.3613 15.5654C39.3431 15.6156 39.3158 15.652 39.2793 15.6748L38.9854 15.8525C38.6253 15.3011 38.3223 14.7679 38.0762 14.2529C37.8346 13.738 37.6364 13.2253 37.4814 12.7148C37.3311 12.2044 37.2217 11.694 37.1533 11.1836C37.0895 10.6686 37.0576 10.1377 37.0576 9.59082ZM40.1953 10.5137C40.1953 9.98047 40.266 9.49512 40.4072 9.05762C40.5485 8.62012 40.7536 8.24414 41.0225 7.92969C41.2959 7.61068 41.6263 7.36458 42.0137 7.19141C42.4056 7.01367 42.8522 6.9248 43.3535 6.9248C43.8047 6.9248 44.2057 6.99772 44.5566 7.14355C44.9076 7.28483 45.2152 7.47852 45.4795 7.72461L45.3018 7.96387C45.279 7.98665 45.2562 8.00716 45.2334 8.02539C45.2152 8.04362 45.1855 8.05273 45.1445 8.05273C45.099 8.05273 45.0352 8.02083 44.9531 7.95703C44.8757 7.89323 44.7686 7.82487 44.6318 7.75195C44.4997 7.67448 44.3311 7.60612 44.126 7.54688C43.9255 7.48307 43.6794 7.45117 43.3877 7.45117C42.9867 7.45117 42.6312 7.52181 42.3213 7.66309C42.0114 7.80436 41.7493 8.00944 41.5352 8.27832C41.321 8.54264 41.1592 8.86393 41.0498 9.24219C40.9404 9.62044 40.8857 10.0443 40.8857 10.5137C40.8857 11.0059 40.9427 11.4411 41.0566 11.8193C41.1706 12.193 41.3324 12.5098 41.542 12.7695C41.7516 13.0293 42.0046 13.2275 42.3008 13.3643C42.6016 13.501 42.9342 13.5693 43.2988 13.5693C43.6361 13.5693 43.9163 13.5306 44.1396 13.4531C44.3675 13.3711 44.5544 13.2845 44.7002 13.1934C44.8506 13.0977 44.9668 13.0111 45.0488 12.9336C45.1354 12.8516 45.2061 12.8105 45.2607 12.8105C45.3154 12.8105 45.361 12.8333 45.3975 12.8789L45.5752 13.1045C45.4658 13.2458 45.3291 13.3779 45.165 13.501C45.0055 13.6195 44.8232 13.7243 44.6182 13.8154C44.4131 13.902 44.1898 13.9681 43.9482 14.0137C43.7067 14.0638 43.4561 14.0889 43.1963 14.0889C42.7542 14.0889 42.3486 14.0091 41.9795 13.8496C41.6149 13.6901 41.3005 13.4577 41.0361 13.1523C40.7718 12.847 40.5645 12.4733 40.4141 12.0312C40.2682 11.5846 40.1953 11.0788 40.1953 10.5137ZM46.4434 15.6748C46.4069 15.652 46.3773 15.6156 46.3545 15.5654C46.3363 15.5153 46.3499 15.4515 46.3955 15.374C46.9561 14.4808 47.3776 13.5557 47.6602 12.5986C47.9427 11.637 48.084 10.6344 48.084 9.59082C48.084 8.54264 47.9427 7.54004 47.6602 6.58301C47.3776 5.62142 46.9561 4.69401 46.3955 3.80078C46.3499 3.72331 46.3363 3.65951 46.3545 3.60938C46.3773 3.55924 46.4069 3.52279 46.4434 3.5L46.7373 3.31543C47.0973 3.86686 47.3981 4.40234 47.6396 4.92188C47.8857 5.43685 48.084 5.94954 48.2344 6.45996C48.3893 6.97038 48.501 7.48307 48.5693 7.99805C48.6377 8.51302 48.6719 9.04395 48.6719 9.59082C48.6719 10.1377 48.6377 10.6686 48.5693 11.1836C48.501 11.694 48.3893 12.2044 48.2344 12.7148C48.084 13.2253 47.8857 13.738 47.6396 14.2529C47.3981 14.7725 47.0973 15.3057 46.7373 15.8525L46.4434 15.6748ZM54.7012 14V4.09473H57.5518C58.1169 4.09473 58.6068 4.15169 59.0215 4.26562C59.4362 4.375 59.778 4.53906 60.0469 4.75781C60.3203 4.97201 60.5208 5.23633 60.6484 5.55078C60.7806 5.86523 60.8467 6.2207 60.8467 6.61719C60.8467 6.87695 60.8011 7.12988 60.71 7.37598C60.6188 7.61751 60.4867 7.84082 60.3135 8.0459C60.1403 8.25098 59.9284 8.42871 59.6777 8.5791C59.4316 8.72949 59.1491 8.8457 58.8301 8.92773C59.6094 9.04622 60.2064 9.30599 60.6211 9.70703C61.0404 10.1081 61.25 10.6367 61.25 11.293C61.25 11.7122 61.1748 12.0905 61.0244 12.4277C60.8786 12.7604 60.6621 13.0452 60.375 13.2822C60.0924 13.5146 59.7438 13.6924 59.3291 13.8154C58.9144 13.9385 58.4427 14 57.9141 14H54.7012ZM55.4189 13.4258H57.9072C58.7731 13.4258 59.4294 13.2389 59.876 12.8652C60.3226 12.487 60.5459 11.9583 60.5459 11.2793C60.5459 10.9648 60.4867 10.6823 60.3682 10.4316C60.2497 10.181 60.0788 9.96908 59.8555 9.7959C59.6322 9.62272 59.3564 9.49056 59.0283 9.39941C58.7002 9.30371 58.3288 9.25586 57.9141 9.25586H55.4189V13.4258ZM55.4189 8.72949H57.5654C58.0212 8.72949 58.4108 8.67253 58.7344 8.55859C59.0625 8.4401 59.3291 8.28516 59.5342 8.09375C59.7438 7.90234 59.8965 7.68587 59.9922 7.44434C60.0924 7.19824 60.1426 6.94759 60.1426 6.69238C60.1426 6.02702 59.9307 5.52344 59.5068 5.18164C59.083 4.83529 58.4313 4.66211 57.5518 4.66211H55.4189V8.72949ZM62.6992 10.5137C62.6992 9.98047 62.7699 9.49512 62.9111 9.05762C63.0524 8.62012 63.2575 8.24414 63.5264 7.92969C63.7998 7.61068 64.1302 7.36458 64.5176 7.19141C64.9095 7.01367 65.3561 6.9248 65.8574 6.9248C66.3086 6.9248 66.7096 6.99772 67.0605 7.14355C67.4115 7.28483 67.7191 7.47852 67.9834 7.72461L67.8057 7.96387C67.7829 7.98665 67.7601 8.00716 67.7373 8.02539C67.7191 8.04362 67.6895 8.05273 67.6484 8.05273C67.6029 8.05273 67.5391 8.02083 67.457 7.95703C67.3796 7.89323 67.2725 7.82487 67.1357 7.75195C67.0036 7.67448 66.835 7.60612 66.6299 7.54688C66.4294 7.48307 66.1833 7.45117 65.8916 7.45117C65.4906 7.45117 65.1351 7.52181 64.8252 7.66309C64.5153 7.80436 64.2533 8.00944 64.0391 8.27832C63.8249 8.54264 63.6631 8.86393 63.5537 9.24219C63.4443 9.62044 63.3896 10.0443 63.3896 10.5137C63.3896 11.0059 63.4466 11.4411 63.5605 11.8193C63.6745 12.193 63.8363 12.5098 64.0459 12.7695C64.2555 13.0293 64.5085 13.2275 64.8047 13.3643C65.1055 13.501 65.4382 13.5693 65.8027 13.5693C66.14 13.5693 66.4202 13.5306 66.6436 13.4531C66.8714 13.3711 67.0583 13.2845 67.2041 13.1934C67.3545 13.0977 67.4707 13.0111 67.5527 12.9336C67.6393 12.8516 67.71 12.8105 67.7646 12.8105C67.8193 12.8105 67.8649 12.8333 67.9014 12.8789L68.0791 13.1045C67.9697 13.2458 67.833 13.3779 67.6689 13.501C67.5094 13.6195 67.3271 13.7243 67.1221 13.8154C66.917 13.902 66.6937 13.9681 66.4521 14.0137C66.2106 14.0638 65.96 14.0889 65.7002 14.0889C65.2581 14.0889 64.8525 14.0091 64.4834 13.8496C64.1188 13.6901 63.8044 13.4577 63.54 13.1523C63.2757 12.847 63.0684 12.4733 62.918 12.0312C62.7721 11.5846 62.6992 11.0788 62.6992 10.5137ZM69.166 10.377C69.166 9.87565 69.2367 9.41536 69.3779 8.99609C69.5238 8.57227 69.7311 8.20768 70 7.90234C70.2689 7.59701 70.597 7.35775 70.9844 7.18457C71.3717 7.01139 71.8138 6.9248 72.3105 6.9248C72.7025 6.9248 73.0671 6.99316 73.4043 7.12988C73.7415 7.26204 74.0332 7.45801 74.2793 7.71777C74.5254 7.97754 74.7191 8.29655 74.8604 8.6748C75.0062 9.05306 75.0791 9.486 75.0791 9.97363C75.0791 10.0785 75.0632 10.1491 75.0312 10.1855C75.0039 10.222 74.9583 10.2402 74.8945 10.2402H69.8291V10.377C69.8291 10.901 69.8883 11.3613 70.0068 11.7578C70.1299 12.1497 70.3031 12.4801 70.5264 12.749C70.7497 13.0179 71.0208 13.2207 71.3398 13.3574C71.6589 13.4896 72.0143 13.5557 72.4062 13.5557C72.7572 13.5557 73.0602 13.5192 73.3154 13.4463C73.5706 13.3688 73.7848 13.2822 73.958 13.1865C74.1357 13.0908 74.2747 13.0042 74.375 12.9268C74.4798 12.8493 74.555 12.8105 74.6006 12.8105C74.6598 12.8105 74.7077 12.8333 74.7441 12.8789L74.9219 13.1045C74.8079 13.2458 74.6598 13.3779 74.4775 13.501C74.2952 13.6195 74.0902 13.722 73.8623 13.8086C73.6344 13.8952 73.3906 13.9635 73.1309 14.0137C72.8757 14.0638 72.6159 14.0889 72.3516 14.0889C71.8776 14.0889 71.4447 14.0068 71.0527 13.8428C70.6608 13.6787 70.3236 13.4372 70.041 13.1182C69.763 12.7992 69.5465 12.4118 69.3916 11.9561C69.2412 11.4958 69.166 10.9694 69.166 10.377ZM69.8564 9.81641H74.4775C74.4775 9.44271 74.4251 9.10775 74.3203 8.81152C74.2155 8.5153 74.0674 8.26465 73.876 8.05957C73.6846 7.85449 73.4567 7.69727 73.1924 7.58789C72.9281 7.47396 72.6364 7.41699 72.3174 7.41699C71.9574 7.41699 71.6361 7.47396 71.3535 7.58789C71.071 7.70182 70.8249 7.86361 70.6152 8.07324C70.4056 8.28288 70.237 8.53581 70.1094 8.83203C69.9818 9.1237 69.8975 9.45182 69.8564 9.81641ZM80.6914 14V7.03418H86.1738V14H85.4971V7.54688H81.3613V14H80.6914ZM88.4707 16.4609V7.03418H88.8398C88.9583 7.03418 89.0267 7.09342 89.0449 7.21191L89.1064 8.28516C89.4163 7.86589 89.7786 7.5332 90.1934 7.28711C90.6081 7.04102 91.0729 6.91797 91.5879 6.91797C92.4401 6.91797 93.1055 7.21419 93.584 7.80664C94.0625 8.39909 94.3018 9.28776 94.3018 10.4727C94.3018 10.9831 94.2357 11.4593 94.1035 11.9014C93.9714 12.3389 93.7754 12.7194 93.5156 13.043C93.2559 13.3665 92.9368 13.6217 92.5586 13.8086C92.1849 13.9954 91.7542 14.0889 91.2666 14.0889C90.7972 14.0889 90.3893 14.0046 90.043 13.8359C89.6966 13.6628 89.3958 13.4076 89.1406 13.0703V16.4609H88.4707ZM89.1406 12.4824C89.4049 12.8835 89.6989 13.166 90.0225 13.3301C90.346 13.4896 90.7174 13.5693 91.1367 13.5693C91.5469 13.5693 91.9046 13.4941 92.21 13.3438C92.5199 13.1934 92.7773 12.9814 92.9824 12.708C93.1921 12.4346 93.3493 12.1087 93.4541 11.7305C93.5635 11.3477 93.6182 10.9284 93.6182 10.4727C93.6182 9.43815 93.4268 8.67708 93.0439 8.18945C92.6611 7.70182 92.112 7.45801 91.3965 7.45801C90.9362 7.45801 90.5192 7.5765 90.1455 7.81348C89.7718 8.05046 89.4368 8.38086 89.1406 8.80469V12.4824ZM95.6279 12.3115C95.6279 12.0153 95.7122 11.7419 95.8809 11.4912C96.0495 11.2406 96.3115 11.0218 96.667 10.835C97.027 10.6481 97.4873 10.5 98.0479 10.3906C98.613 10.2767 99.2897 10.2106 100.078 10.1924V9.46094C100.078 8.81836 99.9391 8.32389 99.6611 7.97754C99.3831 7.63118 98.973 7.45801 98.4307 7.45801C98.0934 7.45801 97.8063 7.50586 97.5693 7.60156C97.3324 7.69271 97.1318 7.79525 96.9678 7.90918C96.8083 8.01855 96.6761 8.12109 96.5713 8.2168C96.471 8.30794 96.3844 8.35352 96.3115 8.35352C96.2614 8.35352 96.2204 8.34212 96.1885 8.31934C96.1566 8.29199 96.1292 8.26009 96.1064 8.22363L95.9834 8.02539C96.348 7.66081 96.7308 7.38509 97.1318 7.19824C97.5329 7.01139 97.9886 6.91797 98.499 6.91797C98.8727 6.91797 99.1986 6.97721 99.4766 7.0957C99.7591 7.21419 99.9915 7.38509 100.174 7.6084C100.361 7.82715 100.5 8.09375 100.591 8.4082C100.687 8.72266 100.734 9.07357 100.734 9.46094V14H100.468C100.326 14 100.24 13.9339 100.208 13.8018L100.105 12.9131C99.9141 13.0999 99.7227 13.2686 99.5312 13.4189C99.3444 13.5693 99.1484 13.6969 98.9434 13.8018C98.7383 13.902 98.5173 13.9772 98.2803 14.0273C98.0433 14.082 97.7812 14.1094 97.4941 14.1094C97.2572 14.1094 97.027 14.0752 96.8037 14.0068C96.5804 13.9385 96.3799 13.8314 96.2021 13.6855C96.029 13.5397 95.89 13.3551 95.7852 13.1318C95.6803 12.904 95.6279 12.6305 95.6279 12.3115ZM96.2705 12.2842C96.2705 12.5166 96.3092 12.7194 96.3867 12.8926C96.4642 13.0612 96.5667 13.2002 96.6943 13.3096C96.8219 13.4189 96.9701 13.501 97.1387 13.5557C97.3073 13.6058 97.4827 13.6309 97.665 13.6309C97.9339 13.6309 98.1823 13.6012 98.4102 13.542C98.638 13.4827 98.8477 13.4007 99.0391 13.2959C99.235 13.1911 99.415 13.068 99.5791 12.9268C99.7477 12.7809 99.9141 12.6237 100.078 12.4551V10.6367C99.4173 10.6549 98.8454 10.7051 98.3623 10.7871C97.8838 10.8691 97.4896 10.9808 97.1797 11.1221C96.8698 11.2633 96.6396 11.432 96.4893 11.6279C96.3434 11.8193 96.2705 12.0381 96.2705 12.2842ZM102.963 14V7.03418H105.28C105.7 7.03418 106.055 7.07747 106.347 7.16406C106.643 7.25065 106.882 7.36914 107.064 7.51953C107.247 7.66536 107.379 7.83626 107.461 8.03223C107.548 8.22819 107.591 8.43327 107.591 8.64746C107.591 8.80241 107.566 8.96647 107.516 9.13965C107.47 9.30827 107.39 9.47233 107.276 9.63184C107.167 9.78678 107.017 9.92806 106.825 10.0557C106.638 10.1787 106.404 10.2699 106.121 10.3291C106.75 10.402 107.213 10.5911 107.509 10.8965C107.81 11.2018 107.96 11.5778 107.96 12.0244C107.96 12.3389 107.898 12.6191 107.775 12.8652C107.652 13.1068 107.479 13.3118 107.256 13.4805C107.037 13.6491 106.771 13.779 106.456 13.8701C106.146 13.9567 105.804 14 105.431 14H102.963ZM103.605 13.5215H105.424C105.72 13.5215 105.987 13.4873 106.224 13.4189C106.461 13.3506 106.661 13.2503 106.825 13.1182C106.989 12.986 107.115 12.8265 107.201 12.6396C107.292 12.4528 107.338 12.2454 107.338 12.0176C107.338 11.8079 107.301 11.6165 107.229 11.4434C107.16 11.2702 107.051 11.1221 106.9 10.999C106.75 10.876 106.554 10.7803 106.312 10.7119C106.071 10.6436 105.782 10.6094 105.444 10.6094H103.605V13.5215ZM103.605 10.165H105.26C105.51 10.165 105.743 10.1309 105.957 10.0625C106.171 9.99414 106.356 9.89844 106.511 9.77539C106.666 9.64779 106.786 9.4974 106.873 9.32422C106.96 9.14648 107.003 8.95052 107.003 8.73633C107.003 8.57682 106.973 8.42415 106.914 8.27832C106.855 8.13249 106.757 8.00033 106.62 7.88184C106.483 7.76335 106.303 7.66992 106.08 7.60156C105.857 7.5332 105.583 7.49902 105.26 7.49902H103.605V10.165ZM109.259 12.3115C109.259 12.0153 109.343 11.7419 109.512 11.4912C109.68 11.2406 109.942 11.0218 110.298 10.835C110.658 10.6481 111.118 10.5 111.679 10.3906C112.244 10.2767 112.921 10.2106 113.709 10.1924V9.46094C113.709 8.81836 113.57 8.32389 113.292 7.97754C113.014 7.63118 112.604 7.45801 112.062 7.45801C111.724 7.45801 111.437 7.50586 111.2 7.60156C110.963 7.69271 110.763 7.79525 110.599 7.90918C110.439 8.01855 110.307 8.12109 110.202 8.2168C110.102 8.30794 110.015 8.35352 109.942 8.35352C109.892 8.35352 109.851 8.34212 109.819 8.31934C109.787 8.29199 109.76 8.26009 109.737 8.22363L109.614 8.02539C109.979 7.66081 110.362 7.38509 110.763 7.19824C111.164 7.01139 111.619 6.91797 112.13 6.91797C112.504 6.91797 112.829 6.97721 113.107 7.0957C113.39 7.21419 113.622 7.38509 113.805 7.6084C113.992 7.82715 114.131 8.09375 114.222 8.4082C114.317 8.72266 114.365 9.07357 114.365 9.46094V14H114.099C113.957 14 113.871 13.9339 113.839 13.8018L113.736 12.9131C113.545 13.0999 113.354 13.2686 113.162 13.4189C112.975 13.5693 112.779 13.6969 112.574 13.8018C112.369 13.902 112.148 13.9772 111.911 14.0273C111.674 14.082 111.412 14.1094 111.125 14.1094C110.888 14.1094 110.658 14.0752 110.435 14.0068C110.211 13.9385 110.011 13.8314 109.833 13.6855C109.66 13.5397 109.521 13.3551 109.416 13.1318C109.311 12.904 109.259 12.6305 109.259 12.3115ZM109.901 12.2842C109.901 12.5166 109.94 12.7194 110.018 12.8926C110.095 13.0612 110.198 13.2002 110.325 13.3096C110.453 13.4189 110.601 13.501 110.77 13.5557C110.938 13.6058 111.114 13.6309 111.296 13.6309C111.565 13.6309 111.813 13.6012 112.041 13.542C112.269 13.4827 112.479 13.4007 112.67 13.2959C112.866 13.1911 113.046 13.068 113.21 12.9268C113.379 12.7809 113.545 12.6237 113.709 12.4551V10.6367C113.048 10.6549 112.476 10.7051 111.993 10.7871C111.515 10.8691 111.12 10.9808 110.811 11.1221C110.501 11.2633 110.271 11.432 110.12 11.6279C109.974 11.8193 109.901 12.0381 109.901 12.2842ZM119.779 13.1045L119.95 12.8789C119.987 12.8333 120.035 12.8105 120.094 12.8105C120.148 12.8105 120.221 12.8516 120.312 12.9336C120.404 13.0111 120.527 13.0977 120.682 13.1934C120.841 13.2845 121.035 13.3711 121.263 13.4531C121.495 13.5306 121.778 13.5693 122.11 13.5693C122.42 13.5693 122.698 13.5306 122.944 13.4531C123.19 13.3757 123.402 13.2686 123.58 13.1318C123.758 12.9906 123.895 12.8242 123.99 12.6328C124.086 12.4414 124.134 12.2318 124.134 12.0039C124.134 11.7897 124.088 11.5938 123.997 11.416C123.906 11.2337 123.769 11.0788 123.587 10.9512C123.409 10.8236 123.186 10.7233 122.917 10.6504C122.653 10.5775 122.347 10.541 122.001 10.541H121.222V10.083H122.001C122.302 10.083 122.575 10.0488 122.821 9.98047C123.067 9.91211 123.275 9.81868 123.443 9.7002C123.612 9.58171 123.742 9.44271 123.833 9.2832C123.929 9.11914 123.977 8.94141 123.977 8.75C123.977 8.58138 123.938 8.4196 123.86 8.26465C123.787 8.1097 123.674 7.9707 123.519 7.84766C123.368 7.72461 123.174 7.62891 122.938 7.56055C122.701 7.48763 122.423 7.45117 122.104 7.45117C121.794 7.45117 121.529 7.48079 121.311 7.54004C121.092 7.59928 120.91 7.66764 120.764 7.74512C120.618 7.81803 120.502 7.88639 120.415 7.9502C120.333 8.00944 120.269 8.03906 120.224 8.03906C120.187 8.03906 120.158 8.03223 120.135 8.01855C120.112 8.00033 120.089 7.97298 120.066 7.93652L119.909 7.69043C120.155 7.46257 120.461 7.27799 120.825 7.13672C121.194 6.99544 121.627 6.9248 122.124 6.9248C122.534 6.9248 122.892 6.97721 123.197 7.08203C123.507 7.18229 123.765 7.31445 123.97 7.47852C124.175 7.64258 124.327 7.83171 124.428 8.0459C124.528 8.25553 124.578 8.46745 124.578 8.68164C124.578 8.83203 124.551 8.98698 124.496 9.14648C124.446 9.30599 124.362 9.46094 124.243 9.61133C124.125 9.75716 123.965 9.88932 123.765 10.0078C123.569 10.1263 123.332 10.2152 123.054 10.2744C123.614 10.3929 124.04 10.6094 124.332 10.9238C124.624 11.2383 124.77 11.6143 124.77 12.0518C124.77 12.3571 124.701 12.6351 124.564 12.8857C124.432 13.1318 124.245 13.346 124.004 13.5283C123.767 13.7061 123.489 13.8451 123.17 13.9453C122.855 14.041 122.516 14.0889 122.151 14.0889C121.896 14.0889 121.648 14.0638 121.406 14.0137C121.169 13.9681 120.948 13.902 120.743 13.8154C120.538 13.7243 120.351 13.6195 120.183 13.501C120.019 13.3779 119.884 13.2458 119.779 13.1045ZM126.089 12.3115C126.089 12.0153 126.173 11.7419 126.342 11.4912C126.51 11.2406 126.772 11.0218 127.128 10.835C127.488 10.6481 127.948 10.5 128.509 10.3906C129.074 10.2767 129.751 10.2106 130.539 10.1924V9.46094C130.539 8.81836 130.4 8.32389 130.122 7.97754C129.844 7.63118 129.434 7.45801 128.892 7.45801C128.554 7.45801 128.267 7.50586 128.03 7.60156C127.793 7.69271 127.593 7.79525 127.429 7.90918C127.269 8.01855 127.137 8.12109 127.032 8.2168C126.932 8.30794 126.845 8.35352 126.772 8.35352C126.722 8.35352 126.681 8.34212 126.649 8.31934C126.618 8.29199 126.59 8.26009 126.567 8.22363L126.444 8.02539C126.809 7.66081 127.192 7.38509 127.593 7.19824C127.994 7.01139 128.45 6.91797 128.96 6.91797C129.334 6.91797 129.66 6.97721 129.938 7.0957C130.22 7.21419 130.452 7.38509 130.635 7.6084C130.822 7.82715 130.961 8.09375 131.052 8.4082C131.147 8.72266 131.195 9.07357 131.195 9.46094V14H130.929C130.787 14 130.701 13.9339 130.669 13.8018L130.566 12.9131C130.375 13.0999 130.184 13.2686 129.992 13.4189C129.805 13.5693 129.609 13.6969 129.404 13.8018C129.199 13.902 128.978 13.9772 128.741 14.0273C128.504 14.082 128.242 14.1094 127.955 14.1094C127.718 14.1094 127.488 14.0752 127.265 14.0068C127.041 13.9385 126.841 13.8314 126.663 13.6855C126.49 13.5397 126.351 13.3551 126.246 13.1318C126.141 12.904 126.089 12.6305 126.089 12.3115ZM126.731 12.2842C126.731 12.5166 126.77 12.7194 126.848 12.8926C126.925 13.0612 127.028 13.2002 127.155 13.3096C127.283 13.4189 127.431 13.501 127.6 13.5557C127.768 13.6058 127.944 13.6309 128.126 13.6309C128.395 13.6309 128.643 13.6012 128.871 13.542C129.099 13.4827 129.309 13.4007 129.5 13.2959C129.696 13.1911 129.876 13.068 130.04 12.9268C130.209 12.7809 130.375 12.6237 130.539 12.4551V10.6367C129.878 10.6549 129.306 10.7051 128.823 10.7871C128.345 10.8691 127.951 10.9808 127.641 11.1221C127.331 11.2633 127.101 11.432 126.95 11.6279C126.804 11.8193 126.731 12.0381 126.731 12.2842ZM133.424 14V7.03418H134.094V13.4873H137.621V7.03418H138.291V13.4873H141.818V7.03418H142.488V13.4873H143.76V16.2627C143.76 16.4131 143.691 16.4883 143.555 16.4883H143.165V14H133.424ZM145.236 14V7.03418H145.906V12.6465C145.906 12.7103 145.904 12.7809 145.899 12.8584C145.895 12.9313 145.888 13.0042 145.879 13.0771C145.906 13.0179 145.936 12.9609 145.968 12.9062C146.004 12.8516 146.036 12.8037 146.063 12.7627C146.068 12.7536 146.132 12.667 146.255 12.5029C146.378 12.3389 146.537 12.1247 146.733 11.8604C146.934 11.596 147.157 11.2998 147.403 10.9717C147.654 10.639 147.909 10.2995 148.169 9.95312C148.775 9.14648 149.463 8.23275 150.233 7.21191C150.261 7.16634 150.297 7.12533 150.343 7.08887C150.388 7.05241 150.436 7.03418 150.486 7.03418H150.869V14H150.206V8.3877C150.206 8.25098 150.213 8.10742 150.227 7.95703C150.199 8.02083 150.17 8.08008 150.138 8.13477C150.106 8.1849 150.074 8.23047 150.042 8.27148C150.033 8.2806 149.967 8.36947 149.844 8.53809C149.725 8.70215 149.566 8.91634 149.365 9.18066C149.169 9.44043 148.946 9.73665 148.695 10.0693C148.449 10.3975 148.196 10.7347 147.937 11.0811C147.33 11.8877 146.642 12.8037 145.872 13.8291C145.845 13.8701 145.808 13.9089 145.763 13.9453C145.722 13.9818 145.674 14 145.619 14H145.236ZM153.166 14V7.03418H153.836V13.4873H157.363V7.03418H158.033V13.4873H161.561V7.03418H162.23V13.4873H163.502V16.2627C163.502 16.4131 163.434 16.4883 163.297 16.4883H162.907V14H153.166ZM164.445 10.377C164.445 9.87565 164.516 9.41536 164.657 8.99609C164.803 8.57227 165.01 8.20768 165.279 7.90234C165.548 7.59701 165.876 7.35775 166.264 7.18457C166.651 7.01139 167.093 6.9248 167.59 6.9248C167.982 6.9248 168.346 6.99316 168.684 7.12988C169.021 7.26204 169.312 7.45801 169.559 7.71777C169.805 7.97754 169.998 8.29655 170.14 8.6748C170.285 9.05306 170.358 9.486 170.358 9.97363C170.358 10.0785 170.342 10.1491 170.311 10.1855C170.283 10.222 170.238 10.2402 170.174 10.2402H165.108V10.377C165.108 10.901 165.168 11.3613 165.286 11.7578C165.409 12.1497 165.582 12.4801 165.806 12.749C166.029 13.0179 166.3 13.2207 166.619 13.3574C166.938 13.4896 167.294 13.5557 167.686 13.5557C168.036 13.5557 168.34 13.5192 168.595 13.4463C168.85 13.3688 169.064 13.2822 169.237 13.1865C169.415 13.0908 169.554 13.0042 169.654 12.9268C169.759 12.8493 169.834 12.8105 169.88 12.8105C169.939 12.8105 169.987 12.8333 170.023 12.8789L170.201 13.1045C170.087 13.2458 169.939 13.3779 169.757 13.501C169.575 13.6195 169.369 13.722 169.142 13.8086C168.914 13.8952 168.67 13.9635 168.41 14.0137C168.155 14.0638 167.895 14.0889 167.631 14.0889C167.157 14.0889 166.724 14.0068 166.332 13.8428C165.94 13.6787 165.603 13.4372 165.32 13.1182C165.042 12.7992 164.826 12.4118 164.671 11.9561C164.521 11.4958 164.445 10.9694 164.445 10.377ZM165.136 9.81641H169.757C169.757 9.44271 169.704 9.10775 169.6 8.81152C169.495 8.5153 169.347 8.26465 169.155 8.05957C168.964 7.85449 168.736 7.69727 168.472 7.58789C168.207 7.47396 167.916 7.41699 167.597 7.41699C167.237 7.41699 166.915 7.47396 166.633 7.58789C166.35 7.70182 166.104 7.86361 165.895 8.07324C165.685 8.28288 165.516 8.53581 165.389 8.83203C165.261 9.1237 165.177 9.45182 165.136 9.81641ZM172.17 14V7.03418H172.84V9.99414H176.976V7.03418H177.652V14H176.976V10.5068H172.84V14H172.17ZM179.949 14V7.03418H180.592V9.95996H182.383C182.857 9.95996 183.253 10.0169 183.572 10.1309C183.896 10.2402 184.153 10.3883 184.345 10.5752C184.536 10.7575 184.673 10.9694 184.755 11.2109C184.837 11.4479 184.878 11.6917 184.878 11.9424C184.878 12.2386 184.826 12.512 184.721 12.7627C184.616 13.0133 184.459 13.2321 184.249 13.4189C184.044 13.6012 183.786 13.7448 183.477 13.8496C183.171 13.9499 182.818 14 182.417 14H179.949ZM180.592 13.501H182.41C182.729 13.501 183.005 13.4645 183.237 13.3916C183.47 13.3141 183.663 13.207 183.818 13.0703C183.973 12.929 184.087 12.765 184.16 12.5781C184.238 12.3867 184.276 12.1794 184.276 11.9561C184.276 11.751 184.244 11.5573 184.181 11.375C184.117 11.1927 184.012 11.0355 183.866 10.9033C183.72 10.7666 183.524 10.6595 183.278 10.582C183.037 10.5 182.738 10.459 182.383 10.459H180.592V13.501ZM186.737 14V7.03418H187.414V14H186.737ZM189.547 13.46C189.547 13.3734 189.563 13.2913 189.595 13.2139C189.631 13.1318 189.677 13.0612 189.731 13.002C189.791 12.9427 189.859 12.8971 189.937 12.8652C190.014 12.8288 190.101 12.8105 190.196 12.8105C190.283 12.8105 190.365 12.8288 190.442 12.8652C190.524 12.8971 190.593 12.9427 190.647 13.002C190.707 13.0612 190.755 13.1318 190.791 13.2139C190.827 13.2913 190.846 13.3734 190.846 13.46C190.846 13.5511 190.827 13.6354 190.791 13.7129C190.755 13.7904 190.707 13.8587 190.647 13.918C190.593 13.9772 190.524 14.0228 190.442 14.0547C190.365 14.0866 190.283 14.1025 190.196 14.1025C190.014 14.1025 189.859 14.041 189.731 13.918C189.608 13.7949 189.547 13.6423 189.547 13.46ZM197.094 14V4.09473H203.116V4.66211H197.812V8.57227H200.129C200.68 8.57227 201.163 8.63379 201.578 8.75684C201.993 8.87533 202.335 9.0485 202.604 9.27637C202.877 9.49967 203.082 9.77311 203.219 10.0967C203.355 10.4157 203.424 10.778 203.424 11.1836C203.424 11.6165 203.349 12.0085 203.198 12.3594C203.052 12.7057 202.838 13.002 202.556 13.248C202.278 13.4896 201.934 13.6764 201.523 13.8086C201.113 13.9362 200.644 14 200.115 14H197.094ZM197.812 13.4258H200.115C200.981 13.4258 201.628 13.2344 202.057 12.8516C202.49 12.4642 202.706 11.931 202.706 11.252C202.706 10.5547 202.494 10.0306 202.07 9.67969C201.646 9.32422 200.999 9.14648 200.129 9.14648H197.812V13.4258ZM204.039 7.03418H204.593C204.661 7.03418 204.716 7.05241 204.757 7.08887C204.802 7.12077 204.832 7.15951 204.846 7.20508L207.19 12.6191C207.218 12.6875 207.241 12.7581 207.259 12.8311C207.282 12.904 207.302 12.9792 207.32 13.0566C207.343 12.9837 207.368 12.9108 207.396 12.8379C207.423 12.765 207.45 12.6921 207.478 12.6191L209.795 7.20508C209.818 7.15495 209.85 7.11393 209.891 7.08203C209.932 7.05013 209.977 7.03418 210.027 7.03418H210.54L206.541 16.2422C206.514 16.306 206.477 16.3584 206.432 16.3994C206.386 16.4404 206.32 16.4609 206.233 16.4609H205.762L206.985 13.7402L204.039 7.03418ZM211.094 14L213.623 10.4385L211.189 7.03418H211.832C211.896 7.03418 211.944 7.04785 211.976 7.0752C212.007 7.10254 212.035 7.13672 212.058 7.17773L214.102 10.124C214.124 10.0374 214.163 9.9554 214.218 9.87793L216.125 7.18457C216.152 7.14355 216.182 7.10938 216.214 7.08203C216.25 7.05013 216.294 7.03418 216.344 7.03418H216.952L214.525 10.4043L217.048 14H216.412C216.348 14 216.298 13.9818 216.262 13.9453C216.225 13.9043 216.193 13.8633 216.166 13.8223L214.054 10.7393C214.031 10.8304 213.997 10.9124 213.951 10.9854L211.935 13.8223C211.903 13.8633 211.868 13.9043 211.832 13.9453C211.796 13.9818 211.75 14 211.695 14H211.094ZM218.176 9.04395C218.176 8.28288 218.29 7.59245 218.518 6.97266C218.745 6.34831 219.067 5.8151 219.481 5.37305C219.896 4.93099 220.393 4.58919 220.972 4.34766C221.55 4.10612 222.191 3.98535 222.893 3.98535C223.594 3.98535 224.235 4.10612 224.813 4.34766C225.397 4.58464 225.896 4.92643 226.311 5.37305C226.725 5.8151 227.047 6.34831 227.274 6.97266C227.502 7.59245 227.616 8.28288 227.616 9.04395C227.616 9.80957 227.502 10.5046 227.274 11.1289C227.047 11.7487 226.725 12.2796 226.311 12.7217C225.896 13.1637 225.397 13.5055 224.813 13.7471C224.235 13.984 223.594 14.1025 222.893 14.1025C222.191 14.1025 221.55 13.984 220.972 13.7471C220.393 13.5055 219.896 13.1637 219.481 12.7217C219.067 12.2796 218.745 11.7487 218.518 11.1289C218.29 10.5046 218.176 9.80957 218.176 9.04395ZM218.9 9.04395C218.9 9.74121 218.996 10.3633 219.188 10.9102C219.383 11.457 219.657 11.9219 220.008 12.3047C220.363 12.6875 220.785 12.9792 221.272 13.1797C221.765 13.3802 222.305 13.4805 222.893 13.4805C223.485 13.4805 224.025 13.3802 224.513 13.1797C225.005 12.9792 225.426 12.6875 225.777 12.3047C226.128 11.9219 226.399 11.457 226.591 10.9102C226.782 10.3633 226.878 9.74121 226.878 9.04395C226.878 8.35124 226.782 7.73145 226.591 7.18457C226.399 6.63314 226.128 6.16602 225.777 5.7832C225.426 5.40039 225.005 5.10872 224.513 4.9082C224.025 4.70312 223.485 4.60059 222.893 4.60059C222.305 4.60059 221.765 4.70312 221.272 4.9082C220.785 5.10872 220.363 5.40039 220.008 5.7832C219.657 6.16602 219.383 6.63314 219.188 7.18457C218.996 7.73145 218.9 8.35124 218.9 9.04395ZM229.414 14V7.03418H230.084V9.99414H234.22V7.03418H234.896V14H234.22V10.5068H230.084V14H229.414ZM236.77 10.377C236.77 9.87565 236.84 9.41536 236.981 8.99609C237.127 8.57227 237.335 8.20768 237.604 7.90234C237.872 7.59701 238.201 7.35775 238.588 7.18457C238.975 7.01139 239.417 6.9248 239.914 6.9248C240.306 6.9248 240.671 6.99316 241.008 7.12988C241.345 7.26204 241.637 7.45801 241.883 7.71777C242.129 7.97754 242.323 8.29655 242.464 8.6748C242.61 9.05306 242.683 9.486 242.683 9.97363C242.683 10.0785 242.667 10.1491 242.635 10.1855C242.607 10.222 242.562 10.2402 242.498 10.2402H237.433V10.377C237.433 10.901 237.492 11.3613 237.61 11.7578C237.733 12.1497 237.907 12.4801 238.13 12.749C238.353 13.0179 238.624 13.2207 238.943 13.3574C239.262 13.4896 239.618 13.5557 240.01 13.5557C240.361 13.5557 240.664 13.5192 240.919 13.4463C241.174 13.3688 241.388 13.2822 241.562 13.1865C241.739 13.0908 241.878 13.0042 241.979 12.9268C242.083 12.8493 242.159 12.8105 242.204 12.8105C242.263 12.8105 242.311 12.8333 242.348 12.8789L242.525 13.1045C242.411 13.2458 242.263 13.3779 242.081 13.501C241.899 13.6195 241.694 13.722 241.466 13.8086C241.238 13.8952 240.994 13.9635 240.734 14.0137C240.479 14.0638 240.219 14.0889 239.955 14.0889C239.481 14.0889 239.048 14.0068 238.656 13.8428C238.264 13.6787 237.927 13.4372 237.645 13.1182C237.367 12.7992 237.15 12.4118 236.995 11.9561C236.845 11.4958 236.77 10.9694 236.77 10.377ZM237.46 9.81641H242.081C242.081 9.44271 242.029 9.10775 241.924 8.81152C241.819 8.5153 241.671 8.26465 241.479 8.05957C241.288 7.85449 241.06 7.69727 240.796 7.58789C240.532 7.47396 240.24 7.41699 239.921 7.41699C239.561 7.41699 239.24 7.47396 238.957 7.58789C238.674 7.70182 238.428 7.86361 238.219 8.07324C238.009 8.28288 237.84 8.53581 237.713 8.83203C237.585 9.1237 237.501 9.45182 237.46 9.81641ZM244.33 13.46C244.33 13.3734 244.346 13.2913 244.378 13.2139C244.414 13.1318 244.46 13.0612 244.515 13.002C244.574 12.9427 244.642 12.8971 244.72 12.8652C244.797 12.8288 244.884 12.8105 244.979 12.8105C245.066 12.8105 245.148 12.8288 245.226 12.8652C245.308 12.8971 245.376 12.9427 245.431 13.002C245.49 13.0612 245.538 13.1318 245.574 13.2139C245.611 13.2913 245.629 13.3734 245.629 13.46C245.629 13.5511 245.611 13.6354 245.574 13.7129C245.538 13.7904 245.49 13.8587 245.431 13.918C245.376 13.9772 245.308 14.0228 245.226 14.0547C245.148 14.0866 245.066 14.1025 244.979 14.1025C244.797 14.1025 244.642 14.041 244.515 13.918C244.392 13.7949 244.33 13.6423 244.33 13.46ZM247.762 16.4609V7.03418H248.131C248.249 7.03418 248.318 7.09342 248.336 7.21191L248.397 8.28516C248.707 7.86589 249.07 7.5332 249.484 7.28711C249.899 7.04102 250.364 6.91797 250.879 6.91797C251.731 6.91797 252.396 7.21419 252.875 7.80664C253.354 8.39909 253.593 9.28776 253.593 10.4727C253.593 10.9831 253.527 11.4593 253.395 11.9014C253.262 12.3389 253.066 12.7194 252.807 13.043C252.547 13.3665 252.228 13.6217 251.85 13.8086C251.476 13.9954 251.045 14.0889 250.558 14.0889C250.088 14.0889 249.68 14.0046 249.334 13.8359C248.988 13.6628 248.687 13.4076 248.432 13.0703V16.4609H247.762ZM248.432 12.4824C248.696 12.8835 248.99 13.166 249.313 13.3301C249.637 13.4896 250.008 13.5693 250.428 13.5693C250.838 13.5693 251.196 13.4941 251.501 13.3438C251.811 13.1934 252.068 12.9814 252.273 12.708C252.483 12.4346 252.64 12.1087 252.745 11.7305C252.854 11.3477 252.909 10.9284 252.909 10.4727C252.909 9.43815 252.718 8.67708 252.335 8.18945C251.952 7.70182 251.403 7.45801 250.688 7.45801C250.227 7.45801 249.81 7.5765 249.437 7.81348C249.063 8.05046 248.728 8.38086 248.432 8.80469V12.4824ZM254.42 7.03418H254.974C255.042 7.03418 255.097 7.05241 255.138 7.08887C255.183 7.12077 255.213 7.15951 255.227 7.20508L257.571 12.6191C257.599 12.6875 257.621 12.7581 257.64 12.8311C257.662 12.904 257.683 12.9792 257.701 13.0566C257.724 12.9837 257.749 12.9108 257.776 12.8379C257.804 12.765 257.831 12.6921 257.858 12.6191L260.176 7.20508C260.199 7.15495 260.23 7.11393 260.271 7.08203C260.312 7.05013 260.358 7.03418 260.408 7.03418H260.921L256.922 16.2422C256.895 16.306 256.858 16.3584 256.812 16.3994C256.767 16.4404 256.701 16.4609 256.614 16.4609H256.143L257.366 13.7402L254.42 7.03418Z" fill="black"/>
<path d="M972.43 14V4.09473H974.993C976.155 4.09473 977.03 4.34993 977.618 4.86035C978.211 5.36621 978.507 6.09082 978.507 7.03418C978.507 7.46712 978.425 7.86589 978.261 8.23047C978.097 8.59505 977.862 8.90951 977.557 9.17383C977.256 9.43815 976.889 9.64323 976.456 9.78906C976.023 9.9349 975.535 10.0078 974.993 10.0078H973.147V14H972.43ZM973.147 9.43359H974.993C975.426 9.43359 975.816 9.37435 976.162 9.25586C976.508 9.13281 976.8 8.96419 977.037 8.75C977.279 8.53581 977.463 8.28288 977.591 7.99121C977.718 7.69954 977.782 7.38053 977.782 7.03418C977.782 6.27311 977.55 5.6875 977.085 5.27734C976.62 4.86719 975.923 4.66211 974.993 4.66211H973.147V9.43359ZM979.409 12.3115C979.409 12.0153 979.493 11.7419 979.662 11.4912C979.831 11.2406 980.093 11.0218 980.448 10.835C980.808 10.6481 981.269 10.5 981.829 10.3906C982.394 10.2767 983.071 10.2106 983.859 10.1924V9.46094C983.859 8.81836 983.72 8.32389 983.442 7.97754C983.164 7.63118 982.754 7.45801 982.212 7.45801C981.875 7.45801 981.588 7.50586 981.351 7.60156C981.114 7.69271 980.913 7.79525 980.749 7.90918C980.59 8.01855 980.457 8.12109 980.353 8.2168C980.252 8.30794 980.166 8.35352 980.093 8.35352C980.043 8.35352 980.002 8.34212 979.97 8.31934C979.938 8.29199 979.91 8.26009 979.888 8.22363L979.765 8.02539C980.129 7.66081 980.512 7.38509 980.913 7.19824C981.314 7.01139 981.77 6.91797 982.28 6.91797C982.654 6.91797 982.98 6.97721 983.258 7.0957C983.54 7.21419 983.773 7.38509 983.955 7.6084C984.142 7.82715 984.281 8.09375 984.372 8.4082C984.468 8.72266 984.516 9.07357 984.516 9.46094V14H984.249C984.108 14 984.021 13.9339 983.989 13.8018L983.887 12.9131C983.695 13.0999 983.504 13.2686 983.312 13.4189C983.126 13.5693 982.93 13.6969 982.725 13.8018C982.52 13.902 982.299 13.9772 982.062 14.0273C981.825 14.082 981.562 14.1094 981.275 14.1094C981.038 14.1094 980.808 14.0752 980.585 14.0068C980.362 13.9385 980.161 13.8314 979.983 13.6855C979.81 13.5397 979.671 13.3551 979.566 13.1318C979.462 12.904 979.409 12.6305 979.409 12.3115ZM980.052 12.2842C980.052 12.5166 980.09 12.7194 980.168 12.8926C980.245 13.0612 980.348 13.2002 980.476 13.3096C980.603 13.4189 980.751 13.501 980.92 13.5557C981.089 13.6058 981.264 13.6309 981.446 13.6309C981.715 13.6309 981.964 13.6012 982.191 13.542C982.419 13.4827 982.629 13.4007 982.82 13.2959C983.016 13.1911 983.196 13.068 983.36 12.9268C983.529 12.7809 983.695 12.6237 983.859 12.4551V10.6367C983.199 10.6549 982.627 10.7051 982.144 10.7871C981.665 10.8691 981.271 10.9808 980.961 11.1221C980.651 11.2633 980.421 11.432 980.271 11.6279C980.125 11.8193 980.052 12.0381 980.052 12.2842ZM986.129 13.1045L986.3 12.8789C986.336 12.8333 986.384 12.8105 986.443 12.8105C986.498 12.8105 986.571 12.8516 986.662 12.9336C986.753 13.0111 986.876 13.0977 987.031 13.1934C987.191 13.2845 987.384 13.3711 987.612 13.4531C987.845 13.5306 988.127 13.5693 988.46 13.5693C988.77 13.5693 989.048 13.5306 989.294 13.4531C989.54 13.3757 989.752 13.2686 989.93 13.1318C990.107 12.9906 990.244 12.8242 990.34 12.6328C990.436 12.4414 990.483 12.2318 990.483 12.0039C990.483 11.7897 990.438 11.5938 990.347 11.416C990.256 11.2337 990.119 11.0788 989.937 10.9512C989.759 10.8236 989.535 10.7233 989.267 10.6504C989.002 10.5775 988.697 10.541 988.351 10.541H987.571V10.083H988.351C988.651 10.083 988.925 10.0488 989.171 9.98047C989.417 9.91211 989.624 9.81868 989.793 9.7002C989.962 9.58171 990.091 9.44271 990.183 9.2832C990.278 9.11914 990.326 8.94141 990.326 8.75C990.326 8.58138 990.287 8.4196 990.21 8.26465C990.137 8.1097 990.023 7.9707 989.868 7.84766C989.718 7.72461 989.524 7.62891 989.287 7.56055C989.05 7.48763 988.772 7.45117 988.453 7.45117C988.143 7.45117 987.879 7.48079 987.66 7.54004C987.441 7.59928 987.259 7.66764 987.113 7.74512C986.967 7.81803 986.851 7.88639 986.765 7.9502C986.683 8.00944 986.619 8.03906 986.573 8.03906C986.537 8.03906 986.507 8.03223 986.484 8.01855C986.462 8.00033 986.439 7.97298 986.416 7.93652L986.259 7.69043C986.505 7.46257 986.81 7.27799 987.175 7.13672C987.544 6.99544 987.977 6.9248 988.474 6.9248C988.884 6.9248 989.242 6.97721 989.547 7.08203C989.857 7.18229 990.114 7.31445 990.319 7.47852C990.524 7.64258 990.677 7.83171 990.777 8.0459C990.878 8.25553 990.928 8.46745 990.928 8.68164C990.928 8.83203 990.9 8.98698 990.846 9.14648C990.796 9.30599 990.711 9.46094 990.593 9.61133C990.474 9.75716 990.315 9.88932 990.114 10.0078C989.918 10.1263 989.681 10.2152 989.403 10.2744C989.964 10.3929 990.39 10.6094 990.682 10.9238C990.973 11.2383 991.119 11.6143 991.119 12.0518C991.119 12.3571 991.051 12.6351 990.914 12.8857C990.782 13.1318 990.595 13.346 990.354 13.5283C990.117 13.7061 989.839 13.8451 989.52 13.9453C989.205 14.041 988.866 14.0889 988.501 14.0889C988.246 14.0889 987.997 14.0638 987.756 14.0137C987.519 13.9681 987.298 13.902 987.093 13.8154C986.888 13.7243 986.701 13.6195 986.532 13.501C986.368 13.3779 986.234 13.2458 986.129 13.1045ZM992.992 16.4609V7.03418H993.361C993.48 7.03418 993.548 7.09342 993.566 7.21191L993.628 8.28516C993.938 7.86589 994.3 7.5332 994.715 7.28711C995.13 7.04102 995.594 6.91797 996.109 6.91797C996.962 6.91797 997.627 7.21419 998.105 7.80664C998.584 8.39909 998.823 9.28776 998.823 10.4727C998.823 10.9831 998.757 11.4593 998.625 11.9014C998.493 12.3389 998.297 12.7194 998.037 13.043C997.777 13.3665 997.458 13.6217 997.08 13.8086C996.706 13.9954 996.276 14.0889 995.788 14.0889C995.319 14.0889 994.911 14.0046 994.564 13.8359C994.218 13.6628 993.917 13.4076 993.662 13.0703V16.4609H992.992ZM993.662 12.4824C993.926 12.8835 994.22 13.166 994.544 13.3301C994.868 13.4896 995.239 13.5693 995.658 13.5693C996.068 13.5693 996.426 13.4941 996.731 13.3438C997.041 13.1934 997.299 12.9814 997.504 12.708C997.714 12.4346 997.871 12.1087 997.976 11.7305C998.085 11.3477 998.14 10.9284 998.14 10.4727C998.14 9.43815 997.948 8.67708 997.565 8.18945C997.183 7.70182 996.633 7.45801 995.918 7.45801C995.458 7.45801 995.041 7.5765 994.667 7.81348C994.293 8.05046 993.958 8.38086 993.662 8.80469V12.4824ZM1000.15 12.3115C1000.15 12.0153 1000.23 11.7419 1000.4 11.4912C1000.57 11.2406 1000.83 11.0218 1001.19 10.835C1001.55 10.6481 1002.01 10.5 1002.57 10.3906C1003.13 10.2767 1003.81 10.2106 1004.6 10.1924V9.46094C1004.6 8.81836 1004.46 8.32389 1004.18 7.97754C1003.9 7.63118 1003.49 7.45801 1002.95 7.45801C1002.61 7.45801 1002.33 7.50586 1002.09 7.60156C1001.85 7.69271 1001.65 7.79525 1001.49 7.90918C1001.33 8.01855 1001.2 8.12109 1001.09 8.2168C1000.99 8.30794 1000.91 8.35352 1000.83 8.35352C1000.78 8.35352 1000.74 8.34212 1000.71 8.31934C1000.68 8.29199 1000.65 8.26009 1000.63 8.22363L1000.5 8.02539C1000.87 7.66081 1001.25 7.38509 1001.65 7.19824C1002.05 7.01139 1002.51 6.91797 1003.02 6.91797C1003.39 6.91797 1003.72 6.97721 1004 7.0957C1004.28 7.21419 1004.51 7.38509 1004.7 7.6084C1004.88 7.82715 1005.02 8.09375 1005.11 8.4082C1005.21 8.72266 1005.26 9.07357 1005.26 9.46094V14H1004.99C1004.85 14 1004.76 13.9339 1004.73 13.8018L1004.63 12.9131C1004.44 13.0999 1004.24 13.2686 1004.05 13.4189C1003.87 13.5693 1003.67 13.6969 1003.46 13.8018C1003.26 13.902 1003.04 13.9772 1002.8 14.0273C1002.56 14.082 1002.3 14.1094 1002.02 14.1094C1001.78 14.1094 1001.55 14.0752 1001.33 14.0068C1001.1 13.9385 1000.9 13.8314 1000.72 13.6855C1000.55 13.5397 1000.41 13.3551 1000.31 13.1318C1000.2 12.904 1000.15 12.6305 1000.15 12.3115ZM1000.79 12.2842C1000.79 12.5166 1000.83 12.7194 1000.91 12.8926C1000.99 13.0612 1001.09 13.2002 1001.22 13.3096C1001.34 13.4189 1001.49 13.501 1001.66 13.5557C1001.83 13.6058 1002 13.6309 1002.19 13.6309C1002.46 13.6309 1002.7 13.6012 1002.93 13.542C1003.16 13.4827 1003.37 13.4007 1003.56 13.2959C1003.76 13.1911 1003.94 13.068 1004.1 12.9268C1004.27 12.7809 1004.44 12.6237 1004.6 12.4551V10.6367C1003.94 10.6549 1003.37 10.7051 1002.88 10.7871C1002.41 10.8691 1002.01 10.9808 1001.7 11.1221C1001.39 11.2633 1001.16 11.432 1001.01 11.6279C1000.86 11.8193 1000.79 12.0381 1000.79 12.2842ZM1007.29 9.5498C1007.29 8.78418 1007.35 8.09147 1007.49 7.47168C1007.63 6.85189 1007.85 6.31868 1008.14 5.87207C1008.43 5.4209 1008.8 5.06087 1009.25 4.79199C1009.71 4.52311 1010.25 4.35677 1010.88 4.29297L1013.38 4.0332L1013.42 4.36816C1013.43 4.4502 1013.42 4.51855 1013.38 4.57324C1013.35 4.62337 1013.29 4.65299 1013.21 4.66211L1010.93 4.90137C1010.41 4.9515 1009.96 5.0791 1009.58 5.28418C1009.21 5.48926 1008.9 5.76953 1008.65 6.125C1008.4 6.47591 1008.21 6.90202 1008.09 7.40332C1007.96 7.90007 1007.89 8.46973 1007.87 9.1123C1007.97 8.8252 1008.12 8.56771 1008.3 8.33984C1008.49 8.10742 1008.71 7.91374 1008.95 7.75879C1009.2 7.60384 1009.47 7.48535 1009.77 7.40332C1010.07 7.31673 1010.38 7.27344 1010.71 7.27344C1011.18 7.27344 1011.59 7.35547 1011.96 7.51953C1012.34 7.68359 1012.65 7.91602 1012.91 8.2168C1013.16 8.51302 1013.35 8.87077 1013.49 9.29004C1013.62 9.70931 1013.69 10.1764 1013.69 10.6914C1013.69 11.2064 1013.62 11.6735 1013.47 12.0928C1013.32 12.5075 1013.11 12.8652 1012.82 13.166C1012.55 13.4622 1012.21 13.6901 1011.8 13.8496C1011.41 14.0091 1010.96 14.0889 1010.46 14.0889C1010.04 14.0889 1009.63 14.016 1009.24 13.8701C1008.86 13.7243 1008.52 13.4759 1008.23 13.125C1007.94 12.7741 1007.71 12.307 1007.54 11.7236C1007.37 11.1403 1007.29 10.4157 1007.29 9.5498ZM1008.01 10.4043C1008.01 10.8874 1008.06 11.3249 1008.17 11.7168C1008.28 12.1087 1008.43 12.4437 1008.64 12.7217C1008.85 12.9997 1009.11 13.2161 1009.41 13.3711C1009.72 13.5215 1010.07 13.5967 1010.46 13.5967C1010.88 13.5967 1011.25 13.5283 1011.57 13.3916C1011.88 13.2503 1012.15 13.0544 1012.36 12.8037C1012.57 12.5531 1012.73 12.25 1012.84 11.8945C1012.95 11.5345 1013.01 11.1335 1013.01 10.6914C1013.01 10.2539 1012.96 9.85514 1012.85 9.49512C1012.75 9.13509 1012.6 8.82747 1012.39 8.57227C1012.19 8.31706 1011.93 8.12109 1011.63 7.98438C1011.33 7.84766 1010.98 7.7793 1010.57 7.7793C1010.2 7.7793 1009.85 7.83854 1009.54 7.95703C1009.22 8.07552 1008.95 8.2487 1008.72 8.47656C1008.5 8.69987 1008.32 8.97559 1008.2 9.30371C1008.07 9.62728 1008.01 9.99414 1008.01 10.4043ZM1015.15 10.5137C1015.15 9.9668 1015.22 9.47461 1015.37 9.03711C1015.51 8.59505 1015.72 8.2168 1016 7.90234C1016.27 7.58789 1016.6 7.34635 1016.99 7.17773C1017.39 7.00911 1017.83 6.9248 1018.33 6.9248C1018.83 6.9248 1019.28 7.00911 1019.67 7.17773C1020.07 7.34635 1020.4 7.58789 1020.67 7.90234C1020.94 8.2168 1021.15 8.59505 1021.29 9.03711C1021.43 9.47461 1021.5 9.9668 1021.5 10.5137C1021.5 11.0605 1021.43 11.5527 1021.29 11.9902C1021.15 12.4277 1020.94 12.8037 1020.67 13.1182C1020.4 13.4326 1020.07 13.6742 1019.67 13.8428C1019.28 14.0068 1018.83 14.0889 1018.33 14.0889C1017.83 14.0889 1017.39 14.0068 1016.99 13.8428C1016.6 13.6742 1016.27 13.4326 1016 13.1182C1015.72 12.8037 1015.51 12.4277 1015.37 11.9902C1015.22 11.5527 1015.15 11.0605 1015.15 10.5137ZM1015.84 10.5137C1015.84 10.9785 1015.9 11.4001 1016 11.7783C1016.11 12.152 1016.26 12.4733 1016.47 12.7422C1016.68 13.0065 1016.94 13.2116 1017.25 13.3574C1017.56 13.4987 1017.92 13.5693 1018.33 13.5693C1018.75 13.5693 1019.11 13.4987 1019.42 13.3574C1019.73 13.2116 1019.99 13.0065 1020.2 12.7422C1020.41 12.4733 1020.56 12.152 1020.66 11.7783C1020.77 11.4001 1020.82 10.9785 1020.82 10.5137C1020.82 10.0534 1020.77 9.63411 1020.66 9.25586C1020.56 8.8776 1020.41 8.55404 1020.2 8.28516C1019.99 8.01628 1019.74 7.8112 1019.43 7.66992C1019.12 7.52409 1018.75 7.45117 1018.33 7.45117C1017.92 7.45117 1017.56 7.52409 1017.25 7.66992C1016.94 7.8112 1016.68 8.01628 1016.47 8.28516C1016.26 8.55404 1016.11 8.8776 1016 9.25586C1015.9 9.63411 1015.84 10.0534 1015.84 10.5137ZM1022.08 7.54688V7.03418H1028.57V7.54688H1025.66V14H1024.99V7.54688H1022.08ZM1029.27 12.3115C1029.27 12.0153 1029.35 11.7419 1029.52 11.4912C1029.69 11.2406 1029.95 11.0218 1030.31 10.835C1030.67 10.6481 1031.13 10.5 1031.69 10.3906C1032.26 10.2767 1032.93 10.2106 1033.72 10.1924V9.46094C1033.72 8.81836 1033.58 8.32389 1033.3 7.97754C1033.03 7.63118 1032.62 7.45801 1032.07 7.45801C1031.74 7.45801 1031.45 7.50586 1031.21 7.60156C1030.97 7.69271 1030.77 7.79525 1030.61 7.90918C1030.45 8.01855 1030.32 8.12109 1030.21 8.2168C1030.11 8.30794 1030.03 8.35352 1029.95 8.35352C1029.9 8.35352 1029.86 8.34212 1029.83 8.31934C1029.8 8.29199 1029.77 8.26009 1029.75 8.22363L1029.63 8.02539C1029.99 7.66081 1030.37 7.38509 1030.77 7.19824C1031.18 7.01139 1031.63 6.91797 1032.14 6.91797C1032.52 6.91797 1032.84 6.97721 1033.12 7.0957C1033.4 7.21419 1033.63 7.38509 1033.82 7.6084C1034 7.82715 1034.14 8.09375 1034.23 8.4082C1034.33 8.72266 1034.38 9.07357 1034.38 9.46094V14H1034.11C1033.97 14 1033.88 13.9339 1033.85 13.8018L1033.75 12.9131C1033.56 13.0999 1033.37 13.2686 1033.17 13.4189C1032.99 13.5693 1032.79 13.6969 1032.59 13.8018C1032.38 13.902 1032.16 13.9772 1031.92 14.0273C1031.69 14.082 1031.42 14.1094 1031.14 14.1094C1030.9 14.1094 1030.67 14.0752 1030.45 14.0068C1030.22 13.9385 1030.02 13.8314 1029.84 13.6855C1029.67 13.5397 1029.53 13.3551 1029.43 13.1318C1029.32 12.904 1029.27 12.6305 1029.27 12.3115ZM1029.91 12.2842C1029.91 12.5166 1029.95 12.7194 1030.03 12.8926C1030.11 13.0612 1030.21 13.2002 1030.34 13.3096C1030.46 13.4189 1030.61 13.501 1030.78 13.5557C1030.95 13.6058 1031.13 13.6309 1031.31 13.6309C1031.58 13.6309 1031.82 13.6012 1032.05 13.542C1032.28 13.4827 1032.49 13.4007 1032.68 13.2959C1032.88 13.1911 1033.06 13.068 1033.22 12.9268C1033.39 12.7809 1033.56 12.6237 1033.72 12.4551V10.6367C1033.06 10.6549 1032.49 10.7051 1032 10.7871C1031.53 10.8691 1031.13 10.9808 1030.82 11.1221C1030.51 11.2633 1030.28 11.432 1030.13 11.6279C1029.99 11.8193 1029.91 12.0381 1029.91 12.2842ZM1036.61 14V7.03418H1037.28V9.99414H1041.41V7.03418H1042.09V14H1041.41V10.5068H1037.28V14H1036.61ZM1043.96 10.5137C1043.96 9.9668 1044.03 9.47461 1044.17 9.03711C1044.32 8.59505 1044.53 8.2168 1044.8 7.90234C1045.08 7.58789 1045.41 7.34635 1045.8 7.17773C1046.19 7.00911 1046.64 6.9248 1047.14 6.9248C1047.64 6.9248 1048.09 7.00911 1048.48 7.17773C1048.88 7.34635 1049.21 7.58789 1049.48 7.90234C1049.75 8.2168 1049.96 8.59505 1050.1 9.03711C1050.24 9.47461 1050.31 9.9668 1050.31 10.5137C1050.31 11.0605 1050.24 11.5527 1050.1 11.9902C1049.96 12.4277 1049.75 12.8037 1049.48 13.1182C1049.21 13.4326 1048.88 13.6742 1048.48 13.8428C1048.09 14.0068 1047.64 14.0889 1047.14 14.0889C1046.64 14.0889 1046.19 14.0068 1045.8 13.8428C1045.41 13.6742 1045.08 13.4326 1044.8 13.1182C1044.53 12.8037 1044.32 12.4277 1044.17 11.9902C1044.03 11.5527 1043.96 11.0605 1043.96 10.5137ZM1044.65 10.5137C1044.65 10.9785 1044.7 11.4001 1044.81 11.7783C1044.91 12.152 1045.07 12.4733 1045.27 12.7422C1045.48 13.0065 1045.74 13.2116 1046.05 13.3574C1046.36 13.4987 1046.72 13.5693 1047.14 13.5693C1047.55 13.5693 1047.92 13.4987 1048.23 13.3574C1048.54 13.2116 1048.8 13.0065 1049.01 12.7422C1049.22 12.4733 1049.37 12.152 1049.47 11.7783C1049.58 11.4001 1049.63 10.9785 1049.63 10.5137C1049.63 10.0534 1049.58 9.63411 1049.47 9.25586C1049.37 8.8776 1049.22 8.55404 1049.01 8.28516C1048.8 8.01628 1048.54 7.8112 1048.23 7.66992C1047.92 7.52409 1047.56 7.45117 1047.14 7.45117C1046.72 7.45117 1046.36 7.52409 1046.05 7.66992C1045.74 7.8112 1045.48 8.01628 1045.27 8.28516C1045.07 8.55404 1044.91 8.8776 1044.81 9.25586C1044.7 9.63411 1044.65 10.0534 1044.65 10.5137ZM1052.07 13.46C1052.07 13.3734 1052.08 13.2913 1052.12 13.2139C1052.15 13.1318 1052.2 13.0612 1052.25 13.002C1052.31 12.9427 1052.38 12.8971 1052.46 12.8652C1052.54 12.8288 1052.62 12.8105 1052.72 12.8105C1052.8 12.8105 1052.89 12.8288 1052.96 12.8652C1053.05 12.8971 1053.11 12.9427 1053.17 13.002C1053.23 13.0612 1053.28 13.1318 1053.31 13.2139C1053.35 13.2913 1053.37 13.3734 1053.37 13.46C1053.37 13.5511 1053.35 13.6354 1053.31 13.7129C1053.28 13.7904 1053.23 13.8587 1053.17 13.918C1053.11 13.9772 1053.05 14.0228 1052.96 14.0547C1052.89 14.0866 1052.8 14.1025 1052.72 14.1025C1052.54 14.1025 1052.38 14.041 1052.25 13.918C1052.13 13.7949 1052.07 13.6423 1052.07 13.46ZM1052.07 7.88184C1052.07 7.79525 1052.08 7.71322 1052.12 7.63574C1052.15 7.55371 1052.2 7.48307 1052.25 7.42383C1052.31 7.36458 1052.38 7.31901 1052.46 7.28711C1052.54 7.25065 1052.62 7.23242 1052.72 7.23242C1052.8 7.23242 1052.89 7.25065 1052.96 7.28711C1053.05 7.31901 1053.11 7.36458 1053.17 7.42383C1053.23 7.48307 1053.28 7.55371 1053.31 7.63574C1053.35 7.71322 1053.37 7.79525 1053.37 7.88184C1053.37 7.97298 1053.35 8.05729 1053.31 8.13477C1053.28 8.21224 1053.23 8.2806 1053.17 8.33984C1053.11 8.39909 1053.05 8.44466 1052.96 8.47656C1052.89 8.50846 1052.8 8.52441 1052.72 8.52441C1052.54 8.52441 1052.38 8.46289 1052.25 8.33984C1052.13 8.2168 1052.07 8.06413 1052.07 7.88184ZM1059.67 14V4.09473H1062.52C1063.09 4.09473 1063.58 4.15169 1063.99 4.26562C1064.4 4.375 1064.75 4.53906 1065.02 4.75781C1065.29 4.97201 1065.49 5.23633 1065.62 5.55078C1065.75 5.86523 1065.82 6.2207 1065.82 6.61719C1065.82 6.87695 1065.77 7.12988 1065.68 7.37598C1065.59 7.61751 1065.46 7.84082 1065.28 8.0459C1065.11 8.25098 1064.9 8.42871 1064.65 8.5791C1064.4 8.72949 1064.12 8.8457 1063.8 8.92773C1064.58 9.04622 1065.18 9.30599 1065.59 9.70703C1066.01 10.1081 1066.22 10.6367 1066.22 11.293C1066.22 11.7122 1066.14 12.0905 1065.99 12.4277C1065.85 12.7604 1065.63 13.0452 1065.34 13.2822C1065.06 13.5146 1064.71 13.6924 1064.3 13.8154C1063.88 13.9385 1063.41 14 1062.88 14H1059.67ZM1060.39 13.4258H1062.88C1063.74 13.4258 1064.4 13.2389 1064.84 12.8652C1065.29 12.487 1065.51 11.9583 1065.51 11.2793C1065.51 10.9648 1065.46 10.6823 1065.34 10.4316C1065.22 10.181 1065.05 9.96908 1064.82 9.7959C1064.6 9.62272 1064.33 9.49056 1064 9.39941C1063.67 9.30371 1063.3 9.25586 1062.88 9.25586H1060.39V13.4258ZM1060.39 8.72949H1062.53C1062.99 8.72949 1063.38 8.67253 1063.7 8.55859C1064.03 8.4401 1064.3 8.28516 1064.5 8.09375C1064.71 7.90234 1064.87 7.68587 1064.96 7.44434C1065.06 7.19824 1065.11 6.94759 1065.11 6.69238C1065.11 6.02702 1064.9 5.52344 1064.48 5.18164C1064.05 4.83529 1063.4 4.66211 1062.52 4.66211H1060.39V8.72949ZM1067.95 11.4844V7.03418H1068.62V11.4844C1068.62 12.1361 1068.77 12.6488 1069.06 13.0225C1069.36 13.3962 1069.82 13.583 1070.43 13.583C1070.88 13.583 1071.3 13.4668 1071.69 13.2344C1072.09 13.002 1072.44 12.6807 1072.75 12.2705V7.03418H1073.42V14H1073.05C1072.94 14 1072.87 13.9385 1072.85 13.8154L1072.79 12.7832C1072.46 13.1842 1072.09 13.5055 1071.67 13.7471C1071.25 13.9886 1070.78 14.1094 1070.27 14.1094C1069.88 14.1094 1069.54 14.0501 1069.25 13.9316C1068.96 13.8086 1068.72 13.6331 1068.53 13.4053C1068.34 13.1774 1068.19 12.9017 1068.09 12.5781C1068 12.2546 1067.95 11.89 1067.95 11.4844ZM1075.72 14V3.81445H1076.39V8.2168C1076.71 7.82031 1077.08 7.50586 1077.49 7.27344C1077.91 7.04102 1078.37 6.9248 1078.89 6.9248C1079.27 6.9248 1079.61 6.98633 1079.9 7.10938C1080.19 7.22786 1080.43 7.40104 1080.62 7.62891C1080.81 7.85677 1080.96 8.13249 1081.05 8.45605C1081.15 8.77962 1081.2 9.14421 1081.2 9.5498V14H1080.53V9.5498C1080.53 8.89811 1080.38 8.3877 1080.08 8.01855C1079.78 7.64486 1079.33 7.45801 1078.71 7.45801C1078.26 7.45801 1077.84 7.57422 1077.44 7.80664C1077.05 8.03451 1076.7 8.35352 1076.39 8.76367V14H1075.72ZM1082.91 9.04395C1082.91 8.28288 1083.03 7.59245 1083.25 6.97266C1083.48 6.34831 1083.8 5.8151 1084.22 5.37305C1084.63 4.93099 1085.13 4.58919 1085.71 4.34766C1086.29 4.10612 1086.93 3.98535 1087.63 3.98535C1088.33 3.98535 1088.97 4.10612 1089.55 4.34766C1090.13 4.58464 1090.63 4.92643 1091.05 5.37305C1091.46 5.8151 1091.78 6.34831 1092.01 6.97266C1092.24 7.59245 1092.35 8.28288 1092.35 9.04395C1092.35 9.80957 1092.24 10.5046 1092.01 11.1289C1091.78 11.7487 1091.46 12.2796 1091.05 12.7217C1090.63 13.1637 1090.13 13.5055 1089.55 13.7471C1088.97 13.984 1088.33 14.1025 1087.63 14.1025C1086.93 14.1025 1086.29 13.984 1085.71 13.7471C1085.13 13.5055 1084.63 13.1637 1084.22 12.7217C1083.8 12.2796 1083.48 11.7487 1083.25 11.1289C1083.03 10.5046 1082.91 9.80957 1082.91 9.04395ZM1083.64 9.04395C1083.64 9.74121 1083.73 10.3633 1083.92 10.9102C1084.12 11.457 1084.39 11.9219 1084.74 12.3047C1085.1 12.6875 1085.52 12.9792 1086.01 13.1797C1086.5 13.3802 1087.04 13.4805 1087.63 13.4805C1088.22 13.4805 1088.76 13.3802 1089.25 13.1797C1089.74 12.9792 1090.16 12.6875 1090.51 12.3047C1090.86 11.9219 1091.14 11.457 1091.33 10.9102C1091.52 10.3633 1091.61 9.74121 1091.61 9.04395C1091.61 8.35124 1091.52 7.73145 1091.33 7.18457C1091.14 6.63314 1090.86 6.16602 1090.51 5.7832C1090.16 5.40039 1089.74 5.10872 1089.25 4.9082C1088.76 4.70312 1088.22 4.60059 1087.63 4.60059C1087.04 4.60059 1086.5 4.70312 1086.01 4.9082C1085.52 5.10872 1085.1 5.40039 1084.74 5.7832C1084.39 6.16602 1084.12 6.63314 1083.92 7.18457C1083.73 7.73145 1083.64 8.35124 1083.64 9.04395ZM1094.15 14V7.03418H1094.52C1094.64 7.03418 1094.71 7.09342 1094.72 7.21191L1094.79 8.25781C1095.11 7.85221 1095.48 7.52865 1095.9 7.28711C1096.32 7.04557 1096.79 6.9248 1097.32 6.9248C1097.7 6.9248 1098.04 6.98633 1098.33 7.10938C1098.62 7.22786 1098.86 7.40104 1099.05 7.62891C1099.24 7.85677 1099.39 8.13249 1099.48 8.45605C1099.58 8.77962 1099.63 9.14421 1099.63 9.5498V14H1098.96V9.5498C1098.96 8.89811 1098.81 8.3877 1098.5 8.01855C1098.21 7.64486 1097.76 7.45801 1097.14 7.45801C1096.69 7.45801 1096.26 7.57422 1095.87 7.80664C1095.48 8.03451 1095.13 8.35352 1094.82 8.76367V14H1094.15ZM1101.42 10.377C1101.42 9.87565 1101.49 9.41536 1101.64 8.99609C1101.78 8.57227 1101.99 8.20768 1102.26 7.90234C1102.53 7.59701 1102.85 7.35775 1103.24 7.18457C1103.63 7.01139 1104.07 6.9248 1104.57 6.9248C1104.96 6.9248 1105.32 6.99316 1105.66 7.12988C1106 7.26204 1106.29 7.45801 1106.54 7.71777C1106.78 7.97754 1106.98 8.29655 1107.12 8.6748C1107.26 9.05306 1107.34 9.486 1107.34 9.97363C1107.34 10.0785 1107.32 10.1491 1107.29 10.1855C1107.26 10.222 1107.22 10.2402 1107.15 10.2402H1102.09V10.377C1102.09 10.901 1102.15 11.3613 1102.26 11.7578C1102.39 12.1497 1102.56 12.4801 1102.78 12.749C1103.01 13.0179 1103.28 13.2207 1103.6 13.3574C1103.92 13.4896 1104.27 13.5557 1104.66 13.5557C1105.01 13.5557 1105.32 13.5192 1105.57 13.4463C1105.83 13.3688 1106.04 13.2822 1106.22 13.1865C1106.39 13.0908 1106.53 13.0042 1106.63 12.9268C1106.74 12.8493 1106.81 12.8105 1106.86 12.8105C1106.92 12.8105 1106.97 12.8333 1107 12.8789L1107.18 13.1045C1107.07 13.2458 1106.92 13.3779 1106.74 13.501C1106.55 13.6195 1106.35 13.722 1106.12 13.8086C1105.89 13.8952 1105.65 13.9635 1105.39 14.0137C1105.13 14.0638 1104.87 14.0889 1104.61 14.0889C1104.14 14.0889 1103.7 14.0068 1103.31 13.8428C1102.92 13.6787 1102.58 13.4372 1102.3 13.1182C1102.02 12.7992 1101.8 12.4118 1101.65 11.9561C1101.5 11.4958 1101.42 10.9694 1101.42 10.377ZM1102.11 9.81641H1106.74C1106.74 9.44271 1106.68 9.10775 1106.58 8.81152C1106.47 8.5153 1106.33 8.26465 1106.13 8.05957C1105.94 7.85449 1105.71 7.69727 1105.45 7.58789C1105.19 7.47396 1104.89 7.41699 1104.58 7.41699C1104.22 7.41699 1103.89 7.47396 1103.61 7.58789C1103.33 7.70182 1103.08 7.86361 1102.87 8.07324C1102.66 8.28288 1102.49 8.53581 1102.37 8.83203C1102.24 9.1237 1102.16 9.45182 1102.11 9.81641Z" fill="black"/>
</svg>
