<svg width="13" height="36" viewBox="0 0 13 36" fill="none" xmlns="http://www.w3.org/2000/svg">
<path d="M10.7097 0.309082H1.40905C0.63419 0.309082 0 1.38178 0 2.69465V33.2418C0 34.5546 0.63419 35.6283 1.40905 35.6283H10.7097C11.4846 35.6283 12.1187 34.5567 12.1187 33.2428V2.69465C12.1187 1.38178 11.4846 0.309082 10.7097 0.309082ZM4.57165 2.02863H7.5471C7.64127 2.02863 7.71756 2.15779 7.71756 2.31824C7.71756 2.47768 7.64127 2.60685 7.5471 2.60685H4.57165C4.47747 2.60685 4.40118 2.47768 4.40118 2.31824C4.40118 2.15779 4.47747 2.02863 4.57165 2.02863ZM6.05937 34.4356C5.67016 34.4356 5.35485 33.9017 5.35485 33.2418C5.35485 32.5818 5.67016 32.049 6.05937 32.049C6.44859 32.049 6.7639 32.5818 6.7639 33.2418C6.7639 33.9017 6.44859 34.4356 6.05937 34.4356ZM11.1383 31.2134H0.980491V4.09228H11.1383V31.2134Z" fill="white"/>
</svg>
