<svg width="1116" height="43" viewBox="0 0 1116 43" fill="none" xmlns="http://www.w3.org/2000/svg">
<path d="M446.128 25V14.876H452.369V16.3252H448.015V25H446.128ZM453.004 24.7471V23.5713H453.544C453.667 23.5713 453.79 23.5576 453.913 23.5303C454.036 23.5029 454.159 23.4437 454.282 23.3525C454.405 23.2614 454.526 23.1292 454.644 22.9561C454.763 22.7829 454.877 22.5505 454.986 22.2588C455.095 21.9671 455.198 21.6094 455.294 21.1855C455.389 20.7617 455.476 20.2513 455.553 19.6543C455.631 19.0573 455.699 18.3669 455.758 17.583C455.818 16.7946 455.861 15.8923 455.888 14.876H462.321V25H460.421V16.3252H457.659C457.595 17.5967 457.502 18.695 457.379 19.6201C457.26 20.5452 457.116 21.3337 456.948 21.9854C456.784 22.637 456.595 23.1657 456.38 23.5713C456.171 23.9769 455.941 24.2936 455.69 24.5215C455.439 24.7493 455.168 24.9043 454.877 24.9863C454.589 25.0638 454.286 25.1025 453.967 25.1025C453.63 25.1025 453.384 25.0729 453.229 25.0137C453.079 24.9544 453.004 24.8656 453.004 24.7471ZM464.753 25L468.725 14.876H470.653L474.631 25H473.175C473.011 25 472.876 24.959 472.772 24.877C472.671 24.7949 472.594 24.6947 472.539 24.5762L471.787 22.5049H467.59L466.838 24.5762C466.802 24.6855 466.729 24.7835 466.619 24.8701C466.515 24.9567 466.38 25 466.216 25H464.753ZM468.075 21.1787H471.302L470.071 17.8086C470.012 17.6582 469.948 17.4827 469.88 17.2822C469.816 17.0771 469.752 16.8561 469.689 16.6191C469.625 16.8561 469.561 17.0794 469.497 17.2891C469.433 17.4941 469.37 17.6719 469.306 17.8223L468.075 21.1787ZM477.056 25V14.876H480.543C481.204 14.876 481.769 14.9398 482.238 15.0674C482.712 15.195 483.099 15.375 483.4 15.6074C483.701 15.8398 483.922 16.1224 484.063 16.4551C484.205 16.7832 484.275 17.1569 484.275 17.5762C484.275 17.8132 484.239 18.041 484.166 18.2598C484.097 18.474 483.988 18.6768 483.838 18.8682C483.692 19.055 483.505 19.2259 483.277 19.3809C483.054 19.5358 482.785 19.6657 482.471 19.7705C483.86 20.085 484.558 20.8369 484.562 22.0264C484.562 22.4548 484.48 22.8512 484.316 23.2158C484.152 23.5804 483.913 23.8949 483.598 24.1592C483.289 24.4189 482.903 24.624 482.443 24.7744C481.987 24.9248 481.466 25 480.878 25H477.056ZM478.936 23.5303H480.844C481.194 23.5303 481.488 23.4893 481.725 23.4072C481.962 23.3206 482.151 23.209 482.293 23.0723C482.439 22.931 482.541 22.7669 482.6 22.5801C482.664 22.3932 482.696 22.195 482.696 21.9854C482.696 21.7666 482.66 21.5706 482.587 21.3975C482.518 21.2197 482.409 21.0693 482.259 20.9463C482.113 20.8187 481.921 20.723 481.684 20.6592C481.452 20.5954 481.169 20.5635 480.837 20.5635H478.936V23.5303ZM478.936 19.2578H480.433C481.076 19.2578 481.561 19.1416 481.889 18.9092C482.222 18.6768 482.388 18.3053 482.388 17.7949C482.388 17.2663 482.238 16.8903 481.937 16.667C481.641 16.4437 481.176 16.332 480.543 16.332H478.936V19.2578ZM487.671 25V14.876H489.558V19.2305H494.316V14.876H496.203V25H494.316V20.5771H489.558V25H487.671ZM498.635 25L502.606 14.876H504.534L508.513 25H507.057C506.893 25 506.758 24.959 506.653 24.877C506.553 24.7949 506.476 24.6947 506.421 24.5762L505.669 22.5049H501.472L500.72 24.5762C500.683 24.6855 500.61 24.7835 500.501 24.8701C500.396 24.9567 500.262 25 500.098 25H498.635ZM501.957 21.1787H505.184L503.953 17.8086C503.894 17.6582 503.83 17.4827 503.762 17.2822C503.698 17.0771 503.634 16.8561 503.57 16.6191C503.507 16.8561 503.443 17.0794 503.379 17.2891C503.315 17.4941 503.251 17.6719 503.188 17.8223L501.957 21.1787ZM509.714 25L512.039 21.4453C512.317 20.9987 512.672 20.6797 513.105 20.4883C512.731 20.388 512.406 20.2536 512.128 20.085C511.854 19.9163 511.626 19.7204 511.444 19.4971C511.262 19.2692 511.125 19.0163 511.034 18.7383C510.947 18.4603 510.904 18.1618 510.904 17.8428C510.904 17.4098 510.986 17.0111 511.15 16.6465C511.314 16.2819 511.553 15.9697 511.868 15.71C512.187 15.4502 512.574 15.2474 513.03 15.1016C513.49 14.9512 514.014 14.876 514.602 14.876H518.191V25H516.304V20.8164H515.272C515.158 20.8164 515.049 20.8278 514.944 20.8506C514.839 20.8688 514.739 20.9053 514.643 20.96C514.547 21.0101 514.452 21.0807 514.356 21.1719C514.265 21.263 514.176 21.3815 514.089 21.5273L512.305 24.3506C512.187 24.5465 512.03 24.7038 511.834 24.8223C511.638 24.9408 511.405 25 511.136 25H509.714ZM512.756 17.8291C512.756 18.057 512.786 18.2666 512.845 18.458C512.909 18.6449 513.012 18.8044 513.153 18.9365C513.299 19.0641 513.49 19.1644 513.727 19.2373C513.964 19.3102 514.256 19.3467 514.602 19.3467H516.304V16.3389H514.602C514.251 16.3389 513.957 16.3776 513.72 16.4551C513.488 16.5326 513.301 16.6396 513.16 16.7764C513.018 16.9085 512.916 17.0658 512.852 17.248C512.788 17.4258 512.756 17.6195 512.756 17.8291Z" fill="#222222"/>
<path d="M598.156 14.878L594.068 23.593C593.923 23.8963 593.769 24.146 593.606 24.342C593.443 24.538 593.265 24.692 593.074 24.804C592.887 24.916 592.684 24.993 592.465 25.035C592.25 25.0817 592.019 25.105 591.772 25.105C591.436 25.105 591.191 25.0747 591.037 25.014C590.883 24.9533 590.806 24.8647 590.806 24.748V23.572H591.352C591.455 23.572 591.56 23.5627 591.667 23.544C591.774 23.5253 591.879 23.488 591.982 23.432C592.089 23.376 592.192 23.2967 592.29 23.194C592.388 23.0913 592.479 22.956 592.563 22.788L592.962 21.976L588.902 14.878H590.666C590.829 14.878 590.96 14.9177 591.058 14.997C591.156 15.0763 591.238 15.1767 591.303 15.298L593.27 19.008C593.377 19.2133 593.473 19.4163 593.557 19.617C593.646 19.8177 593.723 20.023 593.788 20.233C593.909 19.813 594.066 19.4047 594.257 19.008L595.972 15.298C596.023 15.1953 596.1 15.0997 596.203 15.011C596.306 14.9223 596.436 14.878 596.595 14.878H598.156ZM607.105 22.613C607.208 22.613 607.299 22.6527 607.378 22.732L608.12 23.537C607.709 24.0457 607.203 24.4353 606.601 24.706C606.004 24.9767 605.285 25.112 604.445 25.112C603.694 25.112 603.017 24.9837 602.415 24.727C601.818 24.4703 601.307 24.1133 600.882 23.656C600.457 23.1987 600.131 22.6527 599.902 22.018C599.678 21.3833 599.566 20.6903 599.566 19.939C599.566 19.1783 599.687 18.483 599.93 17.853C600.173 17.2183 600.513 16.6723 600.952 16.215C601.395 15.7577 601.923 15.403 602.534 15.151C603.145 14.8943 603.822 14.766 604.564 14.766C605.301 14.766 605.955 14.8873 606.524 15.13C607.098 15.3727 607.586 15.69 607.987 16.082L607.357 16.957C607.32 17.013 607.271 17.062 607.21 17.104C607.154 17.146 607.075 17.167 606.972 17.167C606.902 17.167 606.83 17.1483 606.755 17.111C606.68 17.069 606.599 17.02 606.51 16.964C606.421 16.9033 606.319 16.838 606.202 16.768C606.085 16.698 605.95 16.635 605.796 16.579C605.642 16.5183 605.462 16.4693 605.257 16.432C605.056 16.39 604.823 16.369 604.557 16.369C604.104 16.369 603.689 16.4507 603.311 16.614C602.938 16.7727 602.616 17.006 602.345 17.314C602.074 17.6173 601.864 17.9907 601.715 18.434C601.566 18.8727 601.491 19.3743 601.491 19.939C601.491 20.5083 601.57 21.0147 601.729 21.458C601.892 21.9013 602.112 22.2747 602.387 22.578C602.662 22.8813 602.987 23.1147 603.36 23.278C603.733 23.4367 604.135 23.516 604.564 23.516C604.821 23.516 605.052 23.502 605.257 23.474C605.467 23.446 605.658 23.4017 605.831 23.341C606.008 23.2803 606.174 23.2033 606.328 23.11C606.487 23.012 606.643 22.893 606.797 22.753C606.844 22.711 606.893 22.6783 606.944 22.655C606.995 22.627 607.049 22.613 607.105 22.613ZM619.081 25H617.184V16.327H614.419C614.354 17.5963 614.261 18.6953 614.139 19.624C614.023 20.548 613.88 21.3367 613.712 21.99C613.549 22.6387 613.36 23.166 613.145 23.572C612.935 23.978 612.704 24.2953 612.452 24.524C612.2 24.748 611.93 24.902 611.64 24.986C611.351 25.0653 611.048 25.105 610.73 25.105C610.394 25.105 610.149 25.0747 609.995 25.014C609.841 24.9533 609.764 24.8647 609.764 24.748V23.572H610.303C610.425 23.572 610.546 23.558 610.667 23.53C610.793 23.502 610.917 23.4437 611.038 23.355C611.164 23.2617 611.286 23.1287 611.402 22.956C611.524 22.7833 611.638 22.5523 611.745 22.263C611.857 21.969 611.96 21.6097 612.053 21.185C612.151 20.7603 612.238 20.2493 612.312 19.652C612.392 19.0547 612.459 18.364 612.515 17.58C612.576 16.7913 612.62 15.8907 612.648 14.878H619.081V25ZM630.766 14.878L626.678 23.593C626.533 23.8963 626.379 24.146 626.216 24.342C626.053 24.538 625.875 24.692 625.684 24.804C625.497 24.916 625.294 24.993 625.075 25.035C624.86 25.0817 624.629 25.105 624.382 25.105C624.046 25.105 623.801 25.0747 623.647 25.014C623.493 24.9533 623.416 24.8647 623.416 24.748V23.572H623.962C624.065 23.572 624.17 23.5627 624.277 23.544C624.384 23.5253 624.489 23.488 624.592 23.432C624.699 23.376 624.802 23.2967 624.9 23.194C624.998 23.0913 625.089 22.956 625.173 22.788L625.572 21.976L621.512 14.878H623.276C623.439 14.878 623.57 14.9177 623.668 14.997C623.766 15.0763 623.848 15.1767 623.913 15.298L625.88 19.008C625.987 19.2133 626.083 19.4163 626.167 19.617C626.256 19.8177 626.333 20.023 626.398 20.233C626.519 19.813 626.676 19.4047 626.867 19.008L628.582 15.298C628.633 15.1953 628.71 15.0997 628.813 15.011C628.916 14.9223 629.046 14.878 629.205 14.878H630.766ZM639.405 16.327H635.051V25H633.161V14.878H639.405V16.327ZM650.668 14.878V25H648.778V18.658C648.778 18.42 648.782 18.1703 648.792 17.909C648.806 17.6477 648.834 17.37 648.876 17.076C648.782 17.3373 648.68 17.58 648.568 17.804C648.46 18.0233 648.355 18.217 648.253 18.385L644.382 24.419C644.34 24.489 644.288 24.559 644.228 24.629C644.172 24.699 644.109 24.762 644.039 24.818C643.969 24.8693 643.892 24.9137 643.808 24.951C643.724 24.9837 643.637 25 643.549 25H642.135V14.878H644.025V21.22C644.025 21.458 644.018 21.71 644.004 21.976C643.994 22.2373 643.969 22.515 643.927 22.809C644.02 22.5477 644.12 22.305 644.228 22.081C644.34 21.857 644.449 21.661 644.557 21.493L648.421 15.459C648.463 15.389 648.512 15.319 648.568 15.249C648.628 15.179 648.694 15.1183 648.764 15.067C648.834 15.011 648.908 14.9667 648.988 14.934C649.072 14.8967 649.16 14.878 649.254 14.878H650.668Z" fill="#222222"/>
<path d="M731.716 25H730.008C729.831 25 729.681 24.9533 729.56 24.86C729.443 24.7667 729.334 24.629 729.231 24.447L727.075 21.045C727.019 20.947 726.958 20.8677 726.893 20.807C726.832 20.7417 726.765 20.6903 726.69 20.653C726.62 20.611 726.538 20.583 726.445 20.569C726.356 20.555 726.254 20.548 726.137 20.548H725.01V25H723.127V14.878H725.01V19.12H725.962C726.153 19.12 726.319 19.0873 726.459 19.022C726.599 18.9567 726.73 18.8353 726.851 18.658L729.07 15.382C729.163 15.2327 729.273 15.1113 729.399 15.018C729.525 14.9247 729.677 14.878 729.854 14.878H731.464L728.713 18.938C728.596 19.1153 728.461 19.2623 728.307 19.379C728.153 19.4957 727.983 19.5867 727.796 19.652C728.076 19.7313 728.312 19.8573 728.503 20.03C728.699 20.198 728.886 20.4313 729.063 20.73L731.716 25ZM736.165 16.376V19.183H739.707V20.632H736.165V23.495H740.659V25H734.275V14.878H740.659V16.376H736.165ZM752.261 14.878V25H750.371V18.658C750.371 18.42 750.375 18.1703 750.385 17.909C750.399 17.6477 750.427 17.37 750.469 17.076C750.375 17.3373 750.273 17.58 750.161 17.804C750.053 18.0233 749.948 18.217 749.846 18.385L745.975 24.419C745.933 24.489 745.881 24.559 745.821 24.629C745.765 24.699 745.702 24.762 745.632 24.818C745.562 24.8693 745.485 24.9137 745.401 24.951C745.317 24.9837 745.23 25 745.142 25H743.728V14.878H745.618V21.22C745.618 21.458 745.611 21.71 745.597 21.976C745.587 22.2373 745.562 22.515 745.52 22.809C745.613 22.5477 745.713 22.305 745.821 22.081C745.933 21.857 746.042 21.661 746.15 21.493L750.014 15.459C750.056 15.389 750.105 15.319 750.161 15.249C750.221 15.179 750.287 15.1183 750.357 15.067C750.427 15.011 750.501 14.9667 750.581 14.934C750.665 14.8967 750.753 14.878 750.847 14.878H752.261ZM748.082 13.415C748.254 13.415 748.399 13.3987 748.516 13.366C748.632 13.3333 748.726 13.2773 748.796 13.198C748.866 13.114 748.915 13.002 748.943 12.862C748.971 12.722 748.985 12.5447 748.985 12.33H750.007C750.128 12.33 750.217 12.3813 750.273 12.484C750.333 12.5867 750.364 12.6987 750.364 12.82C750.364 13.058 750.31 13.268 750.203 13.45C750.095 13.632 749.941 13.7837 749.741 13.905C749.54 14.0263 749.3 14.1197 749.02 14.185C748.74 14.2457 748.427 14.276 748.082 14.276C747.736 14.276 747.424 14.2457 747.144 14.185C746.864 14.1197 746.623 14.0263 746.423 13.905C746.222 13.7837 746.068 13.632 745.961 13.45C745.853 13.268 745.8 13.058 745.8 12.82C745.8 12.6987 745.828 12.5867 745.884 12.484C745.944 12.3813 746.035 12.33 746.157 12.33H747.179C747.179 12.5447 747.193 12.722 747.221 12.862C747.249 13.002 747.298 13.114 747.368 13.198C747.438 13.2773 747.529 13.3333 747.641 13.366C747.757 13.3987 747.904 13.415 748.082 13.415ZM762.866 22.613C762.969 22.613 763.06 22.6527 763.139 22.732L763.881 23.537C763.47 24.0457 762.964 24.4353 762.362 24.706C761.765 24.9767 761.046 25.112 760.206 25.112C759.455 25.112 758.778 24.9837 758.176 24.727C757.579 24.4703 757.068 24.1133 756.643 23.656C756.218 23.1987 755.892 22.6527 755.663 22.018C755.439 21.3833 755.327 20.6903 755.327 19.939C755.327 19.1783 755.448 18.483 755.691 17.853C755.934 17.2183 756.274 16.6723 756.713 16.215C757.156 15.7577 757.684 15.403 758.295 15.151C758.906 14.8943 759.583 14.766 760.325 14.766C761.062 14.766 761.716 14.8873 762.285 15.13C762.859 15.3727 763.347 15.69 763.748 16.082L763.118 16.957C763.081 17.013 763.032 17.062 762.971 17.104C762.915 17.146 762.836 17.167 762.733 17.167C762.663 17.167 762.591 17.1483 762.516 17.111C762.441 17.069 762.36 17.02 762.271 16.964C762.182 16.9033 762.08 16.838 761.963 16.768C761.846 16.698 761.711 16.635 761.557 16.579C761.403 16.5183 761.223 16.4693 761.018 16.432C760.817 16.39 760.584 16.369 760.318 16.369C759.865 16.369 759.45 16.4507 759.072 16.614C758.699 16.7727 758.377 17.006 758.106 17.314C757.835 17.6173 757.625 17.9907 757.476 18.434C757.327 18.8727 757.252 19.3743 757.252 19.939C757.252 20.5083 757.331 21.0147 757.49 21.458C757.653 21.9013 757.873 22.2747 758.148 22.578C758.423 22.8813 758.748 23.1147 759.121 23.278C759.494 23.4367 759.896 23.516 760.325 23.516C760.582 23.516 760.813 23.502 761.018 23.474C761.228 23.446 761.419 23.4017 761.592 23.341C761.769 23.2803 761.935 23.2033 762.089 23.11C762.248 23.012 762.404 22.893 762.558 22.753C762.605 22.711 762.654 22.6783 762.705 22.655C762.756 22.627 762.81 22.613 762.866 22.613ZM770.099 23.53C770.449 23.53 770.74 23.4927 770.974 23.418C771.212 23.3387 771.403 23.2313 771.548 23.096C771.692 22.9607 771.795 22.802 771.856 22.62C771.916 22.438 771.947 22.242 771.947 22.032C771.947 21.8033 771.916 21.5957 771.856 21.409C771.795 21.2223 771.692 21.066 771.548 20.94C771.403 20.8093 771.214 20.709 770.981 20.639C770.747 20.569 770.456 20.534 770.106 20.534H768.454V23.53H770.099ZM770.106 19.064C770.764 19.064 771.326 19.1363 771.793 19.281C772.264 19.4257 772.647 19.624 772.941 19.876C773.239 20.1233 773.459 20.4173 773.599 20.758C773.739 21.094 773.809 21.4557 773.809 21.843C773.809 22.319 773.725 22.7507 773.557 23.138C773.393 23.5253 773.153 23.859 772.836 24.139C772.518 24.4143 772.129 24.6267 771.667 24.776C771.209 24.9253 770.687 25 770.099 25H766.571V14.878H768.454V19.064H770.106ZM777.176 25H775.286V14.878H777.176V25Z" fill="#222222"/>
<path d="M858.78 19.939C858.78 20.681 858.656 21.3693 858.409 22.004C858.166 22.634 857.821 23.18 857.373 23.642C856.925 24.104 856.386 24.4657 855.756 24.727C855.126 24.9837 854.426 25.112 853.656 25.112C852.891 25.112 852.193 24.9837 851.563 24.727C850.933 24.4657 850.392 24.104 849.939 23.642C849.491 23.18 849.143 22.634 848.896 22.004C848.649 21.3693 848.525 20.681 848.525 19.939C848.525 19.197 848.649 18.511 848.896 17.881C849.143 17.2463 849.491 16.698 849.939 16.236C850.392 15.774 850.933 15.4147 851.563 15.158C852.193 14.8967 852.891 14.766 853.656 14.766C854.169 14.766 854.652 14.8267 855.105 14.948C855.558 15.0647 855.973 15.2327 856.351 15.452C856.729 15.6667 857.067 15.9303 857.366 16.243C857.669 16.551 857.926 16.8963 858.136 17.279C858.346 17.6617 858.505 18.077 858.612 18.525C858.724 18.973 858.78 19.4443 858.78 19.939ZM856.855 19.939C856.855 19.3837 856.78 18.8867 856.631 18.448C856.482 18.0047 856.269 17.629 855.994 17.321C855.719 17.013 855.383 16.7773 854.986 16.614C854.594 16.4507 854.151 16.369 853.656 16.369C853.161 16.369 852.716 16.4507 852.319 16.614C851.927 16.7773 851.591 17.013 851.311 17.321C851.036 17.629 850.823 18.0047 850.674 18.448C850.525 18.8867 850.45 19.3837 850.45 19.939C850.45 20.4943 850.525 20.9937 850.674 21.437C850.823 21.8757 851.036 22.249 851.311 22.557C851.591 22.8603 851.927 23.0937 852.319 23.257C852.716 23.4203 853.161 23.502 853.656 23.502C854.151 23.502 854.594 23.4203 854.986 23.257C855.383 23.0937 855.719 22.8603 855.994 22.557C856.269 22.249 856.482 21.8757 856.631 21.437C856.78 20.9937 856.855 20.4943 856.855 19.939ZM875.227 25H873.519C873.342 25 873.192 24.9533 873.071 24.86C872.954 24.7667 872.845 24.629 872.742 24.447L870.586 21.045C870.53 20.947 870.469 20.8677 870.404 20.807C870.343 20.7417 870.276 20.6903 870.201 20.653C870.131 20.611 870.049 20.583 869.956 20.569C869.867 20.555 869.765 20.548 869.648 20.548H868.521V25H866.638V14.878H868.521V19.12H869.473C869.664 19.12 869.83 19.0873 869.97 19.022C870.11 18.9567 870.241 18.8353 870.362 18.658L872.581 15.382C872.674 15.2327 872.784 15.1113 872.91 15.018C873.036 14.9247 873.188 14.878 873.365 14.878H874.975L872.224 18.938C872.107 19.1153 871.972 19.2623 871.818 19.379C871.664 19.4957 871.494 19.5867 871.307 19.652C871.587 19.7313 871.823 19.8573 872.014 20.03C872.21 20.198 872.397 20.4313 872.574 20.73L875.227 25ZM887.029 19.939C887.029 20.681 886.905 21.3693 886.658 22.004C886.415 22.634 886.07 23.18 885.622 23.642C885.174 24.104 884.635 24.4657 884.005 24.727C883.375 24.9837 882.675 25.112 881.905 25.112C881.139 25.112 880.442 24.9837 879.812 24.727C879.182 24.4657 878.64 24.104 878.188 23.642C877.74 23.18 877.392 22.634 877.145 22.004C876.897 21.3693 876.774 20.681 876.774 19.939C876.774 19.197 876.897 18.511 877.145 17.881C877.392 17.2463 877.74 16.698 878.188 16.236C878.64 15.774 879.182 15.4147 879.812 15.158C880.442 14.8967 881.139 14.766 881.905 14.766C882.418 14.766 882.901 14.8267 883.354 14.948C883.806 15.0647 884.222 15.2327 884.6 15.452C884.978 15.6667 885.316 15.9303 885.615 16.243C885.918 16.551 886.175 16.8963 886.385 17.279C886.595 17.6617 886.753 18.077 886.861 18.525C886.973 18.973 887.029 19.4443 887.029 19.939ZM885.104 19.939C885.104 19.3837 885.029 18.8867 884.88 18.448C884.73 18.0047 884.518 17.629 884.243 17.321C883.967 17.013 883.631 16.7773 883.235 16.614C882.843 16.4507 882.399 16.369 881.905 16.369C881.41 16.369 880.964 16.4507 880.568 16.614C880.176 16.7773 879.84 17.013 879.56 17.321C879.284 17.629 879.072 18.0047 878.923 18.448C878.773 18.8867 878.699 19.3837 878.699 19.939C878.699 20.4943 878.773 20.9937 878.923 21.437C879.072 21.8757 879.284 22.249 879.56 22.557C879.84 22.8603 880.176 23.0937 880.568 23.257C880.964 23.4203 881.41 23.502 881.905 23.502C882.399 23.502 882.843 23.4203 883.235 23.257C883.631 23.0937 883.967 22.8603 884.243 22.557C884.518 22.249 884.73 21.8757 884.88 21.437C885.029 20.9937 885.104 20.4943 885.104 19.939ZM901.058 14.878V25H899.399V18.462C899.399 18.2007 899.413 17.9183 899.441 17.615L896.382 23.362C896.238 23.6373 896.016 23.775 895.717 23.775H895.451C895.153 23.775 894.931 23.6373 894.786 23.362L891.692 17.594C891.706 17.748 891.718 17.8997 891.727 18.049C891.737 18.1983 891.741 18.336 891.741 18.462V25H890.082V14.878H891.503C891.587 14.878 891.66 14.8803 891.72 14.885C891.781 14.8897 891.835 14.9013 891.881 14.92C891.933 14.9387 891.977 14.969 892.014 15.011C892.056 15.053 892.096 15.109 892.133 15.179L895.164 20.8C895.244 20.9493 895.316 21.1033 895.381 21.262C895.451 21.4207 895.519 21.584 895.584 21.752C895.65 21.5793 895.717 21.4137 895.787 21.255C895.857 21.0917 895.932 20.9353 896.011 20.786L899 15.179C899.038 15.109 899.077 15.053 899.119 15.011C899.161 14.969 899.206 14.9387 899.252 14.92C899.304 14.9013 899.36 14.8897 899.42 14.885C899.481 14.8803 899.553 14.878 899.637 14.878H901.058ZM912.9 25H911.003V16.327H906.607V25H904.717V14.878H912.9V25ZM921.875 21.178L920.643 17.811C920.583 17.6617 920.52 17.4843 920.454 17.279C920.389 17.0737 920.324 16.852 920.258 16.614C920.198 16.852 920.135 17.076 920.069 17.286C920.004 17.4913 919.941 17.671 919.88 17.825L918.655 21.178H921.875ZM925.2 25H923.744C923.581 25 923.448 24.9603 923.345 24.881C923.243 24.797 923.166 24.6943 923.114 24.573L922.358 22.508H918.165L917.409 24.573C917.372 24.6803 917.3 24.7783 917.192 24.867C917.085 24.9557 916.95 25 916.786 25H915.323L919.299 14.878H921.224L925.2 25ZM936.161 14.878V25H934.271V20.576H929.518V25H927.628V14.878H929.518V19.232H934.271V14.878H936.161ZM948.348 14.878V25H946.458V18.658C946.458 18.42 946.463 18.1703 946.472 17.909C946.486 17.6477 946.514 17.37 946.556 17.076C946.463 17.3373 946.36 17.58 946.248 17.804C946.141 18.0233 946.036 18.217 945.933 18.385L942.062 24.419C942.02 24.489 941.969 24.559 941.908 24.629C941.852 24.699 941.789 24.762 941.719 24.818C941.649 24.8693 941.572 24.9137 941.488 24.951C941.404 24.9837 941.318 25 941.229 25H939.815V14.878H941.705V21.22C941.705 21.458 941.698 21.71 941.684 21.976C941.675 22.2373 941.649 22.515 941.607 22.809C941.701 22.5477 941.801 22.305 941.908 22.081C942.02 21.857 942.13 21.661 942.237 21.493L946.101 15.459C946.143 15.389 946.192 15.319 946.248 15.249C946.309 15.179 946.374 15.1183 946.444 15.067C946.514 15.011 946.589 14.9667 946.668 14.934C946.752 14.8967 946.841 14.878 946.934 14.878H948.348ZM960.535 14.878V25H958.645V18.658C958.645 18.42 958.65 18.1703 958.659 17.909C958.673 17.6477 958.701 17.37 958.743 17.076C958.65 17.3373 958.547 17.58 958.435 17.804C958.328 18.0233 958.223 18.217 958.12 18.385L954.249 24.419C954.207 24.489 954.156 24.559 954.095 24.629C954.039 24.699 953.976 24.762 953.906 24.818C953.836 24.8693 953.759 24.9137 953.675 24.951C953.591 24.9837 953.505 25 953.416 25H952.002V14.878H953.892V21.22C953.892 21.458 953.885 21.71 953.871 21.976C953.862 22.2373 953.836 22.515 953.794 22.809C953.888 22.5477 953.988 22.305 954.095 22.081C954.207 21.857 954.317 21.661 954.424 21.493L958.288 15.459C958.33 15.389 958.379 15.319 958.435 15.249C958.496 15.179 958.561 15.1183 958.631 15.067C958.701 15.011 958.776 14.9667 958.855 14.934C958.939 14.8967 959.028 14.878 959.121 14.878H960.535Z" fill="#222222"/>
<path d="M1034.72 25H1033.01C1032.83 25 1032.68 24.9533 1032.56 24.86C1032.44 24.7667 1032.33 24.629 1032.23 24.447L1030.08 21.045C1030.02 20.947 1029.96 20.8677 1029.89 20.807C1029.83 20.7417 1029.76 20.6903 1029.69 20.653C1029.62 20.611 1029.54 20.583 1029.45 20.569C1029.36 20.555 1029.25 20.548 1029.14 20.548H1028.01V25H1026.13V14.878H1028.01V19.12H1028.96C1029.15 19.12 1029.32 19.0873 1029.46 19.022C1029.6 18.9567 1029.73 18.8353 1029.85 18.658L1032.07 15.382C1032.16 15.2327 1032.27 15.1113 1032.4 15.018C1032.53 14.9247 1032.68 14.878 1032.85 14.878H1034.46L1031.71 18.938C1031.6 19.1153 1031.46 19.2623 1031.31 19.379C1031.15 19.4957 1030.98 19.5867 1030.8 19.652C1031.08 19.7313 1031.31 19.8573 1031.5 20.03C1031.7 20.198 1031.89 20.4313 1032.06 20.73L1034.72 25ZM1046.52 19.939C1046.52 20.681 1046.39 21.3693 1046.15 22.004C1045.9 22.634 1045.56 23.18 1045.11 23.642C1044.66 24.104 1044.12 24.4657 1043.49 24.727C1042.86 24.9837 1042.16 25.112 1041.39 25.112C1040.63 25.112 1039.93 24.9837 1039.3 24.727C1038.67 24.4657 1038.13 24.104 1037.68 23.642C1037.23 23.18 1036.88 22.634 1036.63 22.004C1036.39 21.3693 1036.26 20.681 1036.26 19.939C1036.26 19.197 1036.39 18.511 1036.63 17.881C1036.88 17.2463 1037.23 16.698 1037.68 16.236C1038.13 15.774 1038.67 15.4147 1039.3 15.158C1039.93 14.8967 1040.63 14.766 1041.39 14.766C1041.91 14.766 1042.39 14.8267 1042.84 14.948C1043.3 15.0647 1043.71 15.2327 1044.09 15.452C1044.47 15.6667 1044.81 15.9303 1045.1 16.243C1045.41 16.551 1045.66 16.8963 1045.87 17.279C1046.08 17.6617 1046.24 18.077 1046.35 18.525C1046.46 18.973 1046.52 19.4443 1046.52 19.939ZM1044.59 19.939C1044.59 19.3837 1044.52 18.8867 1044.37 18.448C1044.22 18.0047 1044.01 17.629 1043.73 17.321C1043.46 17.013 1043.12 16.7773 1042.72 16.614C1042.33 16.4507 1041.89 16.369 1041.39 16.369C1040.9 16.369 1040.45 16.4507 1040.06 16.614C1039.66 16.7773 1039.33 17.013 1039.05 17.321C1038.77 17.629 1038.56 18.0047 1038.41 18.448C1038.26 18.8867 1038.19 19.3837 1038.19 19.939C1038.19 20.4943 1038.26 20.9937 1038.41 21.437C1038.56 21.8757 1038.77 22.249 1039.05 22.557C1039.33 22.8603 1039.66 23.0937 1040.06 23.257C1040.45 23.4203 1040.9 23.502 1041.39 23.502C1041.89 23.502 1042.33 23.4203 1042.72 23.257C1043.12 23.0937 1043.46 22.8603 1043.73 22.557C1044.01 22.249 1044.22 21.8757 1044.37 21.437C1044.52 20.9937 1044.59 20.4943 1044.59 19.939ZM1058.1 14.878V25H1056.21V20.576H1051.46V25H1049.57V14.878H1051.46V19.232H1056.21V14.878H1058.1ZM1068.83 16.425H1065.78V25H1063.89V16.425H1060.84V14.878H1068.83V16.425ZM1075.91 21.178L1074.68 17.811C1074.62 17.6617 1074.55 17.4843 1074.49 17.279C1074.42 17.0737 1074.36 16.852 1074.29 16.614C1074.23 16.852 1074.17 17.076 1074.1 17.286C1074.04 17.4913 1073.98 17.671 1073.91 17.825L1072.69 21.178H1075.91ZM1079.23 25H1077.78C1077.62 25 1077.48 24.9603 1077.38 24.881C1077.28 24.797 1077.2 24.6943 1077.15 24.573L1076.39 22.508H1072.2L1071.44 24.573C1071.41 24.6803 1071.33 24.7783 1071.23 24.867C1071.12 24.9557 1070.98 25 1070.82 25H1069.36L1073.33 14.878H1075.26L1079.23 25ZM1090.25 25H1088.54C1088.37 25 1088.22 24.9533 1088.1 24.86C1087.98 24.7667 1087.87 24.629 1087.77 24.447L1085.61 21.045C1085.55 20.947 1085.49 20.8677 1085.43 20.807C1085.37 20.7417 1085.3 20.6903 1085.23 20.653C1085.16 20.611 1085.07 20.583 1084.98 20.569C1084.89 20.555 1084.79 20.548 1084.67 20.548H1083.55V25H1081.66V14.878H1083.55V19.12H1084.5C1084.69 19.12 1084.85 19.0873 1084.99 19.022C1085.13 18.9567 1085.26 18.8353 1085.39 18.658L1087.61 15.382C1087.7 15.2327 1087.81 15.1113 1087.93 15.018C1088.06 14.9247 1088.21 14.878 1088.39 14.878H1090L1087.25 18.938C1087.13 19.1153 1087 19.2623 1086.84 19.379C1086.69 19.4957 1086.52 19.5867 1086.33 19.652C1086.61 19.7313 1086.85 19.8573 1087.04 20.03C1087.23 20.198 1087.42 20.4313 1087.6 20.73L1090.25 25ZM1099.88 16.425H1096.83V25H1094.95V16.425H1091.89V14.878H1099.88V16.425ZM1106.13 23.53C1106.48 23.53 1106.77 23.4927 1107.01 23.418C1107.25 23.3387 1107.44 23.2313 1107.58 23.096C1107.73 22.9607 1107.83 22.802 1107.89 22.62C1107.95 22.438 1107.98 22.242 1107.98 22.032C1107.98 21.8033 1107.95 21.5957 1107.89 21.409C1107.83 21.2223 1107.73 21.066 1107.58 20.94C1107.44 20.8093 1107.25 20.709 1107.01 20.639C1106.78 20.569 1106.49 20.534 1106.14 20.534H1104.49V23.53H1106.13ZM1106.14 19.064C1106.8 19.064 1107.36 19.1363 1107.83 19.281C1108.3 19.4257 1108.68 19.624 1108.97 19.876C1109.27 20.1233 1109.49 20.4173 1109.63 20.758C1109.77 21.094 1109.84 21.4557 1109.84 21.843C1109.84 22.319 1109.76 22.7507 1109.59 23.138C1109.43 23.5253 1109.19 23.859 1108.87 24.139C1108.55 24.4143 1108.16 24.6267 1107.7 24.776C1107.24 24.9253 1106.72 25 1106.13 25H1102.6V14.878H1104.49V19.064H1106.14ZM1113.21 25H1111.32V14.878H1113.21V25Z" fill="#222222"/>
<path d="M73.996 11.276L71.296 10.772V8.252H76.984C77.8 8.252 78.88 8.204 80.224 8.108C80.512 8.084 80.872 8.06 81.304 8.036C81.736 8.012 82.24 8 82.816 8C85.432 8 87.484 8.24 88.972 8.72C90.46 9.2 91.492 9.884 92.068 10.772C92.668 11.66 92.968 12.776 92.968 14.12C92.968 15.92 92.404 17.408 91.276 18.584C90.172 19.76 88.756 20.468 87.028 20.708C89.428 20.708 91.312 21.248 92.68 22.328C94.072 23.408 94.768 24.932 94.768 26.9C94.768 29.468 93.88 31.496 92.104 32.984C90.352 34.472 87.364 35.216 83.14 35.216C82.468 35.216 81.82 35.192 81.196 35.144C80.572 35.12 80.128 35.108 79.864 35.108C79 35.036 78.064 35 77.056 35H71.224V32.624L73.996 32.228V11.276ZM80.08 19.808C80.512 19.856 81.484 19.88 82.996 19.88C84.316 19.88 85.288 19.436 85.912 18.548C86.536 17.636 86.848 16.364 86.848 14.732C86.848 13.22 86.512 12.116 85.84 11.42C85.168 10.724 84.076 10.376 82.564 10.376C82.204 10.376 81.784 10.4 81.304 10.448C80.824 10.472 80.416 10.508 80.08 10.556V19.808ZM80.08 32.444C80.56 32.636 81.508 32.732 82.924 32.732C84.7 32.732 85.984 32.264 86.776 31.328C87.592 30.392 88 29.036 88 27.26C88 25.58 87.628 24.38 86.884 23.66C86.14 22.94 84.964 22.58 83.356 22.58C82.036 22.58 80.944 22.604 80.08 22.652V32.444ZM113.553 35.36C112.689 35.36 112.065 35.18 111.681 34.82C111.297 34.436 111.105 33.884 111.105 33.164V32.372C110.529 33.164 109.665 33.872 108.513 34.496C107.361 35.096 106.197 35.396 105.021 35.396C102.669 35.396 100.989 34.82 99.9807 33.668C98.9967 32.492 98.5047 30.536 98.5047 27.8V17.792L96.8127 17.324V15.02L103.581 14.552H103.617L104.409 15.056V27.944C104.409 29.504 104.601 30.596 104.985 31.22C105.369 31.82 106.053 32.12 107.037 32.12C108.381 32.12 109.509 31.664 110.421 30.752V17.792L108.189 17.252V15.02L115.317 14.552H115.425L116.289 15.056V32.516H118.197V34.82C117.381 34.988 116.625 35.12 115.929 35.216C115.257 35.312 114.465 35.36 113.553 35.36ZM122.105 9.008L119.549 8.54V6.344L126.785 5.48H126.893L127.937 6.236L127.973 14.048L127.685 17.252C128.429 16.556 129.413 15.944 130.637 15.416C131.861 14.864 133.205 14.588 134.669 14.588C136.181 14.588 137.357 14.864 138.197 15.416C139.037 15.968 139.625 16.808 139.961 17.936C140.297 19.064 140.465 20.564 140.465 22.436V32.3L142.661 32.624V35H132.653V32.624L134.561 32.3V22.472C134.561 20.792 134.381 19.628 134.021 18.98C133.661 18.308 132.929 17.972 131.825 17.972C131.153 17.972 130.481 18.128 129.809 18.44C129.137 18.728 128.573 19.088 128.117 19.52V32.3L130.097 32.624V35H120.233V32.624L122.105 32.3V9.008ZM156.188 35.396C152.156 35.396 149.168 34.184 147.224 31.76C145.28 29.312 144.308 25.952 144.308 21.68C144.308 18.92 144.812 16.508 145.82 14.444C146.852 12.356 148.292 10.748 150.14 9.62C151.988 8.492 154.148 7.928 156.62 7.928C160.748 7.928 163.784 9.08 165.728 11.384C167.696 13.664 168.68 16.928 168.68 21.176C168.68 23.984 168.164 26.468 167.132 28.628C166.1 30.764 164.636 32.432 162.74 33.632C160.868 34.808 158.684 35.396 156.188 35.396ZM156.512 10.304C154.784 10.304 153.44 11.252 152.48 13.148C151.544 15.044 151.076 17.876 151.076 21.644C151.076 25.484 151.544 28.34 152.48 30.212C153.416 32.06 154.748 32.984 156.476 32.984C158.18 32.984 159.5 31.976 160.436 29.96C161.396 27.92 161.876 25.004 161.876 21.212C161.876 17.372 161.42 14.6 160.508 12.896C159.596 11.168 158.264 10.304 156.512 10.304ZM173.196 18.764L171.072 18.116V15.308L177.624 14.516H177.732L178.668 15.272V16.604L178.632 17.432C179.472 16.64 180.54 15.968 181.836 15.416C183.132 14.864 184.488 14.588 185.904 14.588C187.344 14.588 188.472 14.852 189.288 15.38C190.128 15.884 190.728 16.7 191.088 17.828C191.472 18.956 191.664 20.492 191.664 22.436V32.3L193.68 32.588V35H183.888V32.624L185.652 32.3V22.472C185.652 21.32 185.568 20.432 185.4 19.808C185.256 19.16 184.992 18.692 184.608 18.404C184.224 18.116 183.672 17.972 182.952 17.972C181.848 17.972 180.6 18.488 179.208 19.52V32.3L181.188 32.624V35H171.216V32.624L173.196 32.3V18.764ZM205.359 35.396C202.071 35.396 199.635 34.472 198.051 32.624C196.467 30.752 195.675 28.208 195.675 24.992C195.675 22.808 196.083 20.924 196.899 19.34C197.715 17.756 198.855 16.556 200.319 15.74C201.807 14.9 203.547 14.48 205.539 14.48C208.059 14.48 209.979 15.116 211.299 16.388C212.643 17.66 213.339 19.46 213.387 21.788C213.387 23.324 213.279 24.56 213.063 25.496H201.795C201.915 27.536 202.407 29.096 203.271 30.176C204.159 31.232 205.395 31.76 206.979 31.76C207.867 31.76 208.791 31.616 209.751 31.328C210.735 31.016 211.527 30.668 212.127 30.284L213.135 32.48C212.511 33.176 211.443 33.836 209.931 34.46C208.443 35.084 206.919 35.396 205.359 35.396ZM207.663 23.12L207.699 21.608C207.699 20.096 207.495 18.944 207.087 18.152C206.679 17.36 205.983 16.964 204.999 16.964C203.991 16.964 203.211 17.408 202.659 18.296C202.107 19.16 201.807 20.768 201.759 23.12H207.663Z" fill="#005FA3"/>
<g clip-path="url(#clip0_1_5)">
<path d="M32.584 4.44957C32.5608 4.4264 32.5144 4.40322 32.4913 4.35687C32.5144 4.40322 32.5608 4.4264 32.584 4.44957Z" fill="#FFFAF7"/>
<path d="M32.1437 4.10195C32.2596 4.19465 32.3754 4.28735 32.4913 4.35687C32.3754 4.28735 32.2596 4.19465 32.1437 4.10195C32.1205 4.07877 32.0742 4.0556 32.051 4.03242L32.0046 4.00925L32.051 4.03242C32.0742 4.0556 32.1205 4.07877 32.1437 4.10195Z" fill="#FFFAF7"/>
<path d="M31.9583 3.96291L31.8887 3.91656L31.9583 3.96291Z" fill="#FFFAF7"/>
<path d="M31.7033 3.77751C31.7265 3.80068 31.7265 3.80068 31.7497 3.82386C31.7497 3.80068 31.7265 3.80068 31.7033 3.77751L31.657 3.75433L31.7033 3.77751Z" fill="#FFFAF7"/>
<path d="M31.6802 3.75434C31.6339 3.73116 31.6107 3.70799 31.5875 3.68481C31.6107 3.70799 31.6339 3.73116 31.6802 3.75434Z" fill="#FFFAF7"/>
<path d="M31.263 3.47623C31.2167 3.45306 31.1935 3.42988 31.1472 3.40671C31.1935 3.42988 31.2399 3.45306 31.263 3.47623Z" fill="#FFFAF7"/>
<path d="M23.2909 0.278082C23.2213 0.254907 23.1286 0.254907 23.0591 0.231732C23.0128 0.231732 22.9896 0.231732 22.9432 0.208557C22.9896 0.208557 23.0128 0.208557 23.0591 0.231732C23.1286 0.231732 23.2213 0.254907 23.2909 0.278082Z" fill="#FFFAF7"/>
<path d="M28.4589 1.87718C28.2503 1.78448 28.0649 1.69178 27.8795 1.62225C28.0881 1.69178 28.2735 1.78448 28.4589 1.87718Z" fill="#FFFAF7"/>
<path d="M30.7764 3.15176C30.8227 3.17494 30.8691 3.19811 30.8922 3.22129C30.8691 3.19811 30.8227 3.17494 30.7764 3.15176Z" fill="#FFFAF7"/>
<path d="M26.0719 0.926959C26.0255 0.903784 25.9792 0.903784 25.9328 0.880609C25.8865 0.857434 25.8401 0.857434 25.7938 0.834259C25.8401 0.857434 25.8865 0.857434 25.9328 0.880609C25.956 0.903784 26.0023 0.926959 26.0719 0.926959Z" fill="#FFFAF7"/>
<path d="M25.3071 0.718427C25.2839 0.695251 25.2607 0.695251 25.2375 0.695251H25.2144H25.2375C25.2607 0.695251 25.2839 0.695251 25.3071 0.718427Z" fill="#FFFAF7"/>
<path d="M27.7404 1.5527C27.8099 1.57588 27.8563 1.59905 27.8795 1.62223C27.8331 1.59905 27.8099 1.57588 27.7404 1.5527Z" fill="#FFFAF7"/>
<path d="M30.2665 2.82731L30.3592 2.89684C30.4287 2.94319 30.4983 2.96636 30.5446 3.01271C30.4751 2.96636 30.4287 2.94319 30.3592 2.89684L30.2665 2.82731C30.2433 2.82731 30.2433 2.80414 30.2202 2.80414C30.2433 2.82731 30.2433 2.82731 30.2665 2.82731Z" fill="#FFFAF7"/>
<path d="M32.7462 4.58859C32.6999 4.54224 32.6535 4.51907 32.6072 4.47272C32.6535 4.51907 32.6999 4.54224 32.7462 4.58859Z" fill="#FFFAF7"/>
<path d="M29.9884 2.66509C30.0348 2.68827 30.0811 2.71144 30.1275 2.73462C30.0811 2.71144 30.0348 2.68827 29.9884 2.66509L29.9652 2.64192C29.9421 2.64192 29.9421 2.61874 29.9189 2.61874C29.9421 2.61874 29.9421 2.64192 29.9652 2.64192L29.9884 2.66509Z" fill="#FFFAF7"/>
<path d="M28.5052 1.90035L28.6674 1.99305C28.7369 2.01622 28.8065 2.06257 28.8528 2.08575C28.7833 2.06257 28.7138 2.01622 28.6674 1.99305L28.5052 1.90035C28.5052 1.90035 28.5052 1.87717 28.5052 1.90035C28.5052 1.90035 28.5052 1.87717 28.5052 1.90035Z" fill="#FFFAF7"/>
<path d="M27.022 1.27461C27.1611 1.32096 27.3233 1.39048 27.5087 1.46001C27.5319 1.46001 27.5319 1.46001 27.555 1.48318C27.5319 1.48318 27.5319 1.48318 27.5087 1.46001C27.3233 1.39048 27.1611 1.32096 27.022 1.27461L26.9293 1.25143H26.9061H26.9293L27.022 1.27461Z" fill="#FFFAF7"/>
<path d="M0.208557 17.1031C0.208557 17.0799 0.208557 17.0336 0.231732 17.0104V16.9872V17.0104C0.208557 17.0336 0.208557 17.0567 0.208557 17.1031Z" fill="#FFFAF7"/>
<path d="M0.115845 17.7752C0.115845 17.752 0.115845 17.7288 0.115845 17.7057C0.13902 17.7288 0.115845 17.752 0.115845 17.7752Z" fill="#FFFAF7"/>
<path d="M0.0463683 18.54V18.5168C0.0463683 18.5168 0.0463683 18.5168 0.0463683 18.54C0.0463683 18.6095 0.0231934 18.7022 0.0231934 18.7717C0.0463683 18.679 0.0463683 18.6095 0.0463683 18.54Z" fill="#FFFAF7"/>
<path d="M10.4519 26.7207C10.4519 26.7439 10.4751 26.7671 10.4751 26.7671C10.4519 26.7671 10.4519 26.7439 10.4519 26.7207Z" fill="#FFFAF7"/>
<path d="M20.7416 0.0231323C21.1819 0.0463073 21.6454 0.0694823 22.0857 0.115832C21.6454 0.0694823 21.2051 0.0231323 20.7416 0.0231323Z" fill="#FFFAF7"/>
<path d="M24.1947 0.440308C24.3337 0.463483 24.4496 0.486658 24.5655 0.533008C24.4496 0.486658 24.3106 0.463483 24.1947 0.440308Z" fill="#FFFAF7"/>
<path d="M28.8992 2.08575C29.2004 2.2248 29.4785 2.38703 29.7566 2.54925C29.4785 2.38703 29.2004 2.2248 28.8992 2.08575Z" fill="#FFFAF7"/>
<path d="M33.0243 4.82037C32.978 4.79719 32.9548 4.75084 32.9085 4.72767L32.8389 4.65814L32.9085 4.72767C32.9548 4.75084 33.0012 4.79719 33.0243 4.82037Z" fill="#FFFAF7"/>
<path d="M13.4647 8.71378C15.1796 6.88295 17.2654 5.44611 19.6292 4.54228C20.3476 4.26418 21.0661 4.03243 21.8077 3.87021C21.0661 4.05561 20.3476 4.26418 19.6292 4.54228C17.2422 5.46928 15.1564 6.88295 13.4647 8.71378Z" fill="#FFFAF7"/>
<path d="M17.0104 34.183C15.0406 33.0011 13.3256 31.402 11.9815 29.4785C11.4948 28.7833 11.0776 28.0649 10.7068 27.3001C11.0776 28.0417 11.4948 28.7833 11.9815 29.4785C13.3256 31.3789 15.0406 32.9779 17.0104 34.183Z" fill="#FFFAF7"/>
<path d="M4.28737 30.2665C1.5759 27.5782 0.0695249 24.0093 0 20.2086V20.1622V20.0927C0 20.0695 0 20.0464 0 20.0464C0 20.0695 0 20.0927 0 20.0927C0 20.1159 0 20.1391 0 20.1622V20.2086C0.0695249 24.0093 1.5759 27.5782 4.28737 30.2665C6.99884 32.9316 10.591 34.4148 14.4148 34.4148C15.0174 34.4148 15.6199 34.3685 16.2225 34.299C15.6199 34.3685 15.0174 34.4148 14.4148 34.4148C10.591 34.4148 6.99884 32.9316 4.28737 30.2665Z" fill="#FFFAF7"/>
<path d="M33.4647 5.21436C33.511 5.26071 33.5342 5.28389 33.5805 5.30706C33.5574 5.28389 33.511 5.26071 33.4647 5.21436L33.4183 5.16801L33.3951 5.14484L33.4183 5.16801L33.4647 5.21436Z" fill="#FFFAF7"/>
<path d="M34.0209 5.72421C33.9977 5.70103 33.9745 5.67786 33.9513 5.65468C33.9282 5.63151 33.8818 5.58516 33.8586 5.56198C33.8818 5.58516 33.9282 5.63151 33.9513 5.65468C33.9513 5.67786 33.9977 5.70103 34.0209 5.72421Z" fill="#FFFAF7"/>
<path d="M33.7196 5.44609C33.6964 5.42292 33.6501 5.39974 33.6269 5.35339C33.6501 5.37657 33.6732 5.42292 33.7196 5.44609Z" fill="#FFFAF7"/>
<path d="M0.23175 16.9409V16.9872C0.23175 17.0104 0.23175 17.0568 0.208575 17.0799V17.1031C0.208575 17.1263 0.208575 17.1495 0.208575 17.1726V17.219V17.2422V17.2653V17.2885C0.208575 17.358 0.1854 17.4276 0.1854 17.4971C0.1854 17.5666 0.162225 17.613 0.162225 17.6825C0.162225 17.7057 0.162225 17.7288 0.162225 17.752C0.162225 17.8215 0.13905 17.8911 0.13905 17.9606C0.13905 18.0069 0.13905 18.0765 0.115875 18.1228V18.1692C0.115875 18.1923 0.115875 18.2155 0.115875 18.2387C0.115875 18.2619 0.115875 18.285 0.115875 18.3082C0.115875 18.3314 0.115875 18.3314 0.115875 18.3546C0.115875 18.3777 0.115875 18.3777 0.115875 18.4009C0.115875 18.4241 0.115875 18.4473 0.115875 18.4704V18.4936C0.115875 18.5631 0.0926999 18.6558 0.0926999 18.7254C0.0926999 18.7717 0.0926999 18.7949 0.0926999 18.8412C0.0926999 18.8876 0.0926999 18.9108 0.0926999 18.9571C0.0926999 18.9571 0.0926999 18.9571 0.0926999 18.9803V19.0035V19.0266V19.0498C0.0926999 19.0962 0.0926999 19.1425 0.0926999 19.1889C0.0926999 19.212 0.0926999 19.2352 0.0926999 19.2352C0.0926999 19.3279 0.0926999 19.3974 0.0926999 19.467C0.0926999 19.4901 0.0926999 19.4901 0.0926999 19.5133V19.5365C0.0926999 19.606 0.0926999 19.6755 0.0926999 19.7219V19.7682V19.7914V19.8609C0 19.9305 0 19.9305 0 19.9536C0 19.9768 0 19.9768 0 20C0 20.0232 0 20.0232 0 20.0463C0 20.0695 0 20.0927 0 20.0927V20.1622V20.2086C0.0463499 24.0093 1.5759 27.5782 4.28737 30.2433C6.99884 32.9084 10.591 34.3916 14.4148 34.3916C15.0174 34.3916 15.6199 34.3453 16.2225 34.2758C16.5006 34.2526 16.7555 34.2062 17.0336 34.1599C15.0637 32.978 13.3488 31.3789 12.0046 29.4554C11.518 28.7601 11.1008 28.0417 10.73 27.2769C10.6373 27.1147 10.5678 26.9293 10.4983 26.7671C10.4983 26.7439 10.4751 26.7207 10.4751 26.7207C9.54809 24.6118 9.06141 22.3407 9.06141 20C9.06141 16.5933 10.0811 13.3256 12.0278 10.5214C12.4681 9.87252 12.9548 9.26997 13.4878 8.71377C15.2028 6.88295 17.2885 5.4461 19.6524 4.54228C20.3708 4.26418 21.0892 4.03243 21.8308 3.8702C23.0591 3.56893 24.3337 3.42988 25.6315 3.42988C28.6443 3.42988 31.5411 4.241 34.0672 5.7242C34.044 5.70103 34.0209 5.67785 33.9977 5.65467C33.9745 5.6315 33.9282 5.58515 33.905 5.56198L33.8818 5.5388C33.8586 5.51562 33.8123 5.49245 33.7891 5.4461C33.7659 5.42292 33.7196 5.39975 33.6964 5.3534C33.6964 5.3534 33.6964 5.3534 33.6732 5.33022C33.6269 5.30705 33.6037 5.2607 33.5574 5.23753L33.511 5.19117L33.4878 5.168C33.4415 5.12165 33.3951 5.0753 33.3256 5.02895C33.2561 4.9826 33.2097 4.93625 33.1634 4.8899C33.1402 4.86673 33.117 4.86673 33.117 4.84355C33.0707 4.82038 33.0475 4.77403 33.0012 4.75085L32.9316 4.68133L32.8853 4.63498L32.8621 4.6118L32.8389 4.58863C32.7926 4.54228 32.7462 4.5191 32.6999 4.47275C32.6767 4.44958 32.6304 4.4264 32.6072 4.38005C32.4913 4.28735 32.3754 4.19465 32.2827 4.12513C32.2596 4.10195 32.2132 4.07878 32.19 4.0556L32.1437 4.03243L32.1205 4.00925C32.1205 4.00925 32.1205 4.00925 32.0973 4.00925L32.0278 3.9629L32.0046 3.93973L31.9119 3.8702L31.8888 3.84703C31.8656 3.82385 31.8656 3.82385 31.8424 3.80068L31.8192 3.7775C31.7961 3.75433 31.7497 3.73115 31.7265 3.70798L31.7034 3.6848C31.6107 3.61528 31.5411 3.56893 31.4484 3.4994C31.4021 3.47623 31.3789 3.45305 31.3326 3.42988L31.3094 3.4067C31.263 3.36035 31.1935 3.33718 31.1472 3.29083C31.124 3.29083 31.124 3.26765 31.1008 3.26765C31.0545 3.24448 31.0081 3.2213 30.9849 3.19813C30.9154 3.15178 30.8691 3.1286 30.7995 3.08225C30.73 3.0359 30.6837 3.01273 30.6141 2.96638L30.5214 2.89685C30.4983 2.89685 30.4983 2.87368 30.4751 2.87368C30.4519 2.87368 30.4287 2.8505 30.4056 2.8505C30.3824 2.8505 30.3824 2.82733 30.3592 2.82733C30.3129 2.80415 30.2665 2.78098 30.2202 2.7578L30.197 2.73463C30.1738 2.73463 30.1738 2.71145 30.1506 2.71145C30.1043 2.68828 30.0579 2.6651 30.0348 2.64193C30.0348 2.64193 30.0348 2.64193 30.0116 2.64193C29.7335 2.4797 29.4322 2.34065 29.1541 2.17843H29.1309C29.0614 2.15525 28.9919 2.1089 28.9455 2.08573L28.5052 1.90033C28.5052 1.90033 28.5052 1.90033 28.482 1.90033C28.2735 1.80763 28.0881 1.71493 27.9027 1.6454C27.8563 1.62223 27.81 1.59905 27.7636 1.59905H27.7404H27.7173L27.6477 1.57588C27.6246 1.57588 27.6014 1.5527 27.555 1.5527C27.5319 1.5527 27.5319 1.5527 27.5087 1.52953C27.3233 1.46 27.1611 1.39048 27.022 1.34413L26.9293 1.32095H26.9061L26.8134 1.29778C26.5585 1.20508 26.3268 1.11238 26.0487 1.04286C26.0487 1.04286 26.0487 1.04286 26.0255 1.04286C25.9791 1.01968 25.9328 1.01968 25.8864 0.996505C25.8401 0.97333 25.7937 0.97333 25.7474 0.950155C25.7242 0.950155 25.6779 0.92698 25.6547 0.92698C25.5388 0.903805 25.4461 0.857455 25.3302 0.834281C25.3071 0.834281 25.3071 0.834281 25.2839 0.834281C25.2839 0.695231 25.2607 0.695231 25.2375 0.695231H25.2144H25.1912C24.9826 0.648881 24.774 0.579356 24.5423 0.533006C24.4264 0.509831 24.2874 0.486656 24.1715 0.440306C23.9629 0.393956 23.7312 0.347606 23.5226 0.301256C23.4531 0.278081 23.3604 0.278081 23.2908 0.254906C23.2213 0.231731 23.1286 0.231731 23.0591 0.208556C23.0127 0.208556 22.9896 0.208556 22.9432 0.185381C22.8969 0.185381 22.8505 0.162206 22.8042 0.162206C22.5724 0.139031 22.3407 0.0926815 22.1089 0.0695065C21.6686 0.0231566 21.2051 -1.8388e-05 20.7648 -0.0231934C20.5098 -1.8388e-05 20.2549 -1.8388e-05 20 -1.8388e-05C19.5829 -1.8388e-05 19.1425 0.0231566 18.7254 0.0463316C18.679 0.0463316 18.6327 0.0463316 18.5863 0.0463316C18.1228 0.0695065 17.6593 0.115856 17.1958 0.185381C17.1031 0.208556 17.0336 0.208556 16.9409 0.231731L0.23175 16.9409Z" fill="#005FA3"/>
<path d="M39.7682 23.0359V23.0127C39.7682 22.9896 39.7682 22.9664 39.7914 22.92V22.8969C39.7914 22.8505 39.8146 22.8273 39.8146 22.781V22.7578V22.7346C39.8146 22.7115 39.8146 22.7115 39.8146 22.7115L39.8378 22.5956L39.8609 22.5029C39.8609 22.4102 39.8841 22.3407 39.8841 22.2711C39.8841 22.2016 39.9073 22.1321 39.9073 22.0626C39.9073 21.993 39.9305 21.9467 39.9305 21.9003V21.854C39.9305 21.8076 39.9305 21.7845 39.9305 21.7381V21.7149V21.6918C39.9305 21.6454 39.9305 21.5991 39.9536 21.5295V21.5064C39.9536 21.4368 39.9768 21.3673 39.9768 21.2746C39.9768 21.2051 39.9768 21.1124 40 21.0429V21.0197V20.9965V20.9733C40 20.9038 40 20.8343 40 20.7879C40 20.6952 40 20.6257 40 20.533V20.4867C40 20.4171 40 20.3708 40 20.3013V20.1622C40 20.1159 40 20.0695 40 20C40 19.9536 40 19.8841 40 19.8378V19.7914C39.9536 15.9907 38.4241 12.4218 35.7126 9.75666C33.0011 7.09153 29.409 5.60834 25.5851 5.60834C24.7045 5.60834 23.8239 5.67786 22.9896 5.84009C24.9594 7.02201 26.6744 8.62108 28.0185 10.5446C29.9652 13.3256 30.9849 16.5933 30.9849 20.0232C30.9849 23.4299 29.9652 26.6976 28.0185 29.5017C26.1182 32.2132 23.4762 34.299 20.394 35.4809C18.4936 36.2225 16.4774 36.5933 14.4148 36.5933C11.4021 36.5933 8.5052 35.7821 5.97913 34.299H6.0023C6.02548 34.3221 6.02548 34.3221 6.04865 34.3453L6.095 34.3916C6.11818 34.4148 6.16453 34.4612 6.1877 34.4844C6.23405 34.5307 6.30358 34.6002 6.3731 34.6466C6.41945 34.6929 6.4658 34.7161 6.48898 34.7624C6.5585 34.832 6.62803 34.9015 6.72073 34.971C6.76708 35.0174 6.81343 35.0637 6.85978 35.1101L6.88295 35.1333L7.022 35.2491L7.04517 35.2723C7.09152 35.2955 7.1147 35.3418 7.16105 35.365L7.18422 35.3882L7.2074 35.4114C7.23057 35.4345 7.27692 35.4809 7.32327 35.504H7.34645H7.36962C7.3928 35.5272 7.43915 35.5504 7.46232 35.5736C7.5782 35.6663 7.6709 35.7358 7.78677 35.8285C7.80995 35.8517 7.83312 35.8748 7.8563 35.8748C7.87947 35.898 7.90265 35.9212 7.949 35.9444C7.97217 35.9676 7.97217 35.9675 7.99535 35.9675L8.01852 35.9907C8.06487 36.0139 8.11122 36.0602 8.15757 36.0834L8.20392 36.1066C8.2271 36.1298 8.25027 36.1298 8.27345 36.1529C8.29662 36.1761 8.34297 36.1993 8.36615 36.2225L8.4125 36.2456C8.5052 36.3152 8.57472 36.3615 8.66742 36.431C8.71377 36.4542 8.73695 36.4774 8.7833 36.5006L8.80647 36.5237L8.89917 36.5933L8.99187 36.6628C9.03822 36.686 9.08457 36.7323 9.1541 36.7555C9.20045 36.7787 9.26997 36.825 9.31632 36.8482H9.50172L9.73347 37.0568C9.75665 37.0799 9.803 37.1031 9.84935 37.1263C9.91887 37.1726 9.9884 37.219 10.0579 37.2422C10.1043 37.2653 10.1738 37.3117 10.2201 37.3349C10.5214 37.4971 10.8227 37.6593 11.124 37.7984C11.1935 37.8215 11.263 37.8679 11.3325 37.8911C11.3325 37.8911 11.3557 37.8911 11.3557 37.9142C11.4252 37.9374 11.4716 37.9838 11.5411 38.0069C11.7265 38.0996 11.9119 38.1923 12.1205 38.2619C12.1668 38.285 12.2132 38.3082 12.2595 38.3314C12.2827 38.3314 12.2827 38.3546 12.3059 38.3546C12.3754 38.3777 12.4218 38.4009 12.4913 38.4241C12.6535 38.4936 12.8157 38.54 12.978 38.6095C13.0243 38.6327 13.0938 38.6558 13.1402 38.679C13.3951 38.7717 13.65 38.8644 13.8818 38.9339C13.9281 38.9571 13.9745 38.9571 14.0208 38.9803C14.0904 39.0035 14.1599 39.0266 14.2526 39.0498L14.3221 39.073C14.4148 39.0962 14.5075 39.1193 14.577 39.1425C14.6234 39.1657 14.6697 39.1657 14.7161 39.1889C15.2723 39.3279 15.8285 39.467 16.3847 39.5597C16.4542 39.5828 16.5237 39.5828 16.6164 39.606C16.7091 39.6292 16.7787 39.6292 16.8482 39.6524C16.9177 39.6755 17.0104 39.6755 17.0799 39.6755C18.0069 39.8146 18.9339 39.8609 19.8841 39.8609C20.8111 39.8609 21.7613 39.7914 22.6883 39.6755H22.7115C22.781 39.6755 22.8505 39.6524 22.9432 39.6524L39.6524 22.9432C39.7682 23.0359 39.7682 23.0359 39.7682 23.0359Z" fill="#222222"/>
</g>
<defs>
<clipPath id="clip0_1_5">
<rect width="40" height="40" fill="white"/>
</clipPath>
</defs>
</svg>
